<svg width="180" height="51" viewBox="0 0 180 51" fill="none" xmlns="http://www.w3.org/2000/svg">
<path d="M8.30365 20.8786C9.55883 16.3356 12.5519 12.4691 16.6071 10.0526L12.745 3.47974C6.95192 6.76619 2.60708 12.3725 0.869141 18.8487L8.30365 20.8786Z" fill="#1A1A1A"/>
<path d="M20.952 8.21613C22.4969 7.82949 24.0417 7.63617 25.5865 7.63617V0C23.3658 0 21.1451 0.289981 19.021 0.869943L20.952 8.21613Z" fill="#1A1A1A"/>
<path d="M30.2207 8.21616C34.7587 9.47275 38.7173 12.4692 41.0345 16.529L47.6966 12.6625C44.3173 6.86292 38.7173 2.5132 32.1517 0.773315L30.2207 8.21616Z" fill="#1A1A1A"/>
<path d="M0 25.4216C0 27.6448 0.289656 29.868 0.868969 31.9945L8.30348 30.0613C7.91727 28.5148 7.72417 26.9682 7.72417 25.4216H0Z" fill="#1A1A1A"/>
<path d="M3.37939 38.1809C4.53802 40.1141 5.88975 41.854 7.43458 43.4005L12.8415 37.9875C11.7794 36.9243 10.8139 35.6677 10.0415 34.3145L3.37939 38.1809Z" fill="#1A1A1A"/>
<path d="M12.7451 47.4602C16.6072 49.6834 21.0486 50.8433 25.49 50.8433V43.2072C22.4003 43.2072 19.3107 42.4339 16.6072 40.7906L12.7451 47.4602Z" fill="#1A1A1A"/>
<path d="M41.0345 34.4111C38.6207 38.4709 34.7587 41.4673 30.2207 42.7239L32.2483 50.0701C38.8138 48.3302 44.4139 44.0772 47.7932 38.1809L41.0345 34.4111Z" fill="#1A1A1A"/>
<path d="M50.5932 31.9945C51.7518 27.6448 51.7518 23.1018 50.6898 18.7521L43.2552 20.6853C44.0277 23.6818 44.0277 26.8715 43.1587 29.9647L50.5932 31.9945Z" fill="#1A1A1A"/>
<path d="M80.9106 22.7151C80.0416 20.3953 78.014 19.042 75.8899 19.042C72.5106 19.042 70.2899 21.8452 70.2899 25.1316C70.2899 28.4181 72.6071 31.3179 75.8899 31.3179C78.014 31.3179 79.8485 30.158 80.9106 27.8381H86.5106C85.2554 32.8645 80.9106 36.0543 75.9864 36.0543C73.0899 36.0543 70.3864 35.0877 68.1657 32.9611C65.945 30.7379 64.9795 28.1281 64.9795 24.9383C64.9795 19.4287 69.7105 14.4023 75.6968 14.4023C78.5933 14.4023 80.9106 15.1756 82.9382 16.9155C84.8692 18.5587 86.1244 20.4919 86.5106 22.6185H80.9106V22.7151Z" fill="#1A1A1A"/>
<path d="M96.8419 36.0543C92.1109 36.0543 88.4419 32.5745 88.4419 27.7415C88.4419 23.0051 92.2074 19.4287 96.8419 19.4287C101.573 19.4287 105.242 22.9085 105.242 27.6448C105.242 32.3812 101.476 36.0543 96.8419 36.0543ZM100.511 27.8382C100.511 25.7116 98.9661 23.8751 96.7454 23.8751C94.7178 23.8751 92.9798 25.7116 92.9798 27.8382C92.9798 29.9647 94.6212 31.8012 96.7454 31.8012C98.8695 31.7046 100.511 29.868 100.511 27.8382Z" fill="#1A1A1A"/>
<path d="M119.725 35.571V33.9278C118.856 35.3777 117.311 36.151 114.994 36.151C110.263 36.151 107.173 32.4779 107.173 27.8382C107.173 23.1985 110.359 19.5254 114.897 19.5254C116.732 19.5254 118.18 20.1054 119.532 21.362V14.7891H124.263V35.571H119.725ZM119.725 27.7415C119.725 25.615 118.083 23.8751 115.766 23.8751C113.449 23.8751 111.807 25.5184 111.807 27.7415C111.807 30.0614 113.449 31.8013 115.766 31.8013C118.083 31.8013 119.725 30.0614 119.725 27.7415Z" fill="#1A1A1A"/>
<path d="M139.325 35.571V33.9278H139.228C138.552 35.281 136.718 36.151 134.594 36.151C129.959 36.151 126.773 32.4779 126.773 27.8382C126.773 23.1018 130.152 19.5254 134.594 19.5254C136.525 19.5254 138.263 20.2987 139.228 21.7486H139.325V20.1054H144.056V35.6677H139.325V35.571ZM139.325 27.7415C139.325 25.5183 137.587 23.7784 135.366 23.7784C133.145 23.7784 131.504 25.5183 131.504 27.8382C131.504 30.0614 133.242 31.8013 135.366 31.8013C137.587 31.8013 139.325 30.0614 139.325 27.7415Z" fill="#1A1A1A"/>
<path d="M158.539 26.0016C157.863 24.5517 156.608 23.7784 155.063 23.7784C152.939 23.7784 151.49 25.5183 151.49 27.7415C151.49 29.9647 153.035 31.7046 155.256 31.7046C156.801 31.7046 157.959 30.9313 158.635 29.578H163.366C162.401 33.4445 159.118 36.0543 155.063 36.0543C150.428 36.0543 146.759 32.2845 146.759 27.7415C146.759 23.1985 150.428 19.4287 154.966 19.4287C159.118 19.4287 162.401 22.0385 163.366 26.0016H158.539Z" fill="#1A1A1A"/>
<path d="M167.035 40.7906L169.546 34.7977L163.752 20.0087H168.773L171.863 29.0947H171.959L174.952 20.0087H179.877L172.056 40.7906H167.035Z" fill="#1A1A1A"/>
</svg>
