<svg id="Icons" xmlns="http://www.w3.org/2000/svg" viewBox="0 0 288 288"><defs><style>.cls-1{fill:none;}.cls-2{fill:#324b5c;}.cls-3{fill:#f29111;}.cls-4{fill:#f80000;}.cls-5{fill:#8aadbf;}.cls-6{fill:#942645;}.cls-7{fill:#fff;}.cls-8{fill:#00758f;}.cls-9{fill:#dee0e0;}.cls-10{fill:#4f6c7d;}.cls-11{fill:#cdb498;}.cls-12{fill:#3a913f;}</style></defs><title>OCIC_Business_Data-Integration_Detailed_RGB</title><rect class="cls-1" width="288" height="288"/><path class="cls-2" d="M106.19,94.81h16.19a16.11,16.11,0,0,0-2.17-8.09l-14,8.09Z"/><path class="cls-3" d="M117.08,75.95A16.11,16.11,0,0,0,109,73.78V90l14-8.09A16.26,16.26,0,0,0,117.08,75.95Z"/><path class="cls-4" d="M106.19,94.81l-8.09,14a16.19,16.19,0,0,0,24.28-14Z"/><path class="cls-5" d="M98.09,80.8a16.26,16.26,0,0,0-5.92,5.92l14,8.09V78.63A16.11,16.11,0,0,0,98.09,80.8Z"/><path class="cls-6" d="M92.17,86.72a16.19,16.19,0,0,0,5.92,22.11l8.09-14Z"/><path class="cls-3" d="M216.28,102a6,6,0,0,1-5.57-8.23c1.23-3.08,2.29-6.31,2.29-8.27a13.5,13.5,0,0,0-27,0c0,2,1.06,5.19,2.29,8.27a6,6,0,0,1-5.57,8.23H159v25.22a6,6,0,0,0,8.23,5.57c3.08-1.23,6.31-2.29,8.27-2.29a13.5,13.5,0,0,1,0,27c-2,0-5.19-1.06-8.27-2.29a6,6,0,0,0-8.23,5.57V186h23.72a6,6,0,0,1,5.57,8.23c-1.23,3.08-2.29,6.31-2.29,8.27a13.5,13.5,0,0,0,27,0c0-2-1.06-5.19-2.29-8.27a6,6,0,0,1,5.57-8.23H240V102Z"/><path class="cls-5" d="M98.73,215l-1.79-5.38H85.06l-1.93,5.4a1.39,1.39,0,0,1-1.31.92H75.67a1.39,1.39,0,0,1-1.28-1.92L88.2,180.86a1.39,1.39,0,0,1,1.29-.86h4.74a1.39,1.39,0,0,1,1.3.9l12.39,33.22a1.39,1.39,0,0,1-1.3,1.88H100A1.39,1.39,0,0,1,98.73,215ZM87.47,203h7.2l-3.45-10.39h-.05Z"/><rect class="cls-4" x="75" y="143.14" width="4.29" height="12.86"/><rect class="cls-4" x="83.57" y="134.57" width="4.29" height="21.43"/><rect class="cls-4" x="100.71" y="130.29" width="4.29" height="25.71"/><rect class="cls-4" x="92.14" y="126" width="4.29" height="30"/><rect class="cls-7" x="117" y="120" width="30" height="30"/><polygon class="cls-8" points="129.86 125.54 134.14 129.83 143.97 120 117 120 117 138.4 129.86 125.54"/><polygon class="cls-6" points="134.14 135.89 129.86 131.6 117 144.46 117 150 147 150 147 123.03 134.14 135.89"/><rect class="cls-9" x="48" y="96" width="30" height="30"/><rect class="cls-10" x="52.29" y="100.29" width="21.43" height="4.29"/><rect class="cls-10" x="52.29" y="108.86" width="21.43" height="4.29"/><rect class="cls-10" x="52.29" y="117.43" width="12.86" height="4.29"/><rect class="cls-9" x="111" y="165" width="30" height="30"/><rect class="cls-11" x="124.5" y="178.29" width="3" height="12"/><path class="cls-12" d="M133.4,184.24v0l0-.09,0-.07-5.47-13h0a2,2,0,0,0-3.67-.16h0v0h0l-5.57,13.21v0a2,2,0,0,0,1.85,2.69h11.08a2,2,0,0,0,2-2,2,2,0,0,0-.12-.63"/><path class="cls-3" d="M63,159a15,15,0,1,0,15,15A15,15,0,0,0,63,159Z"/><polygon class="cls-7" points="70.5 174 58.5 181.5 58.5 166.5 70.5 174"/></svg>