<svg xmlns="http://www.w3.org/2000/svg" width="518.352" height="456.265" viewBox="0 0 518.352 456.265"><g transform="translate(-59.548 -2.084)"><path d="M217.972,225.069c1.878-12.943-5.76-26.26-22.913-36.163-30.921-17.853-81.055-17.853-111.976,0-17.153,9.9-24.791,23.22-22.913,36.163h-.258v126.79c.436,11.358,8.16,22.639,23.171,31.306,30.921,17.853,81.055,17.853,111.976,0,15.012-8.667,22.735-19.948,23.171-31.306V225.069Z" fill="#fff" fill-rule="evenodd"/><path d="M217.972,225.069v.34l-.337-.389Zm-22.913-36.163-.17.294Zm-111.976,0,.17.294ZM60.17,225.069l.337-.049-.337.389Zm-.258,0h-.34l.34-.34Zm0,126.79-.34.013v-.013Zm23.171,31.306-.17.295Zm111.976,0,.17.295Zm23.171-31.306h.34v.013Zm0-126.79v-.34l.34.34Zm-.6-.049c1.851-12.754-5.662-25.956-22.746-35.82l.34-.589c17.222,9.943,24.985,23.375,23.08,36.507ZM194.889,189.2c-15.4-8.889-35.6-13.344-55.818-13.344S98.65,180.311,83.253,189.2l-.34-.589c15.524-8.963,35.851-13.435,56.158-13.435s40.634,4.472,56.158,13.435Zm-111.636,0c-17.084,9.864-24.6,23.066-22.746,35.82l-.673.1c-1.905-13.132,5.858-26.564,23.08-36.507ZM59.912,224.729h.258v.68h-.258Zm-.34,127.13V225.069h.68v126.79Zm23.341,31.6c-15.072-8.7-22.9-20.073-23.341-31.588l.68-.026c.43,11.2,8.05,22.392,23,31.025Zm112.316,0c-15.525,8.963-35.851,13.435-56.158,13.435s-40.633-4.472-56.158-13.435l.34-.589c15.4,8.889,35.6,13.343,55.818,13.343s40.421-4.454,55.818-13.343Zm23.341-31.588c-.442,11.515-8.269,22.886-23.341,31.588l-.34-.589c14.951-8.633,22.572-19.825,23-31.025Zm0-126.8v126.79h-.68V225.069Zm-.6-.34h.258v.68h-.258Z" fill="#091a23"/><path d="M218.224,265.456c-.436,11.357-8.159,22.639-23.171,31.306-30.921,17.852-81.054,17.852-111.975,0-15.012-8.667-22.736-19.949-23.171-31.306" fill="none" stroke="#091a23" stroke-width="0.68"/><path d="M218.224,308.351c-.436,11.357-8.159,22.639-23.171,31.306-30.921,17.852-81.054,17.852-111.975,0-15.012-8.667-22.736-19.949-23.171-31.306" fill="none" stroke="#091a23" stroke-width="0.68"/><path d="M83.079,253.557c30.921,17.852,81.054,17.852,111.975,0s30.921-46.8,0-64.649-81.054-17.853-111.975,0S52.158,235.7,83.079,253.557Z" fill="#fff" stroke="#091a23" stroke-linejoin="bevel" stroke-width="0.68"/><path d="M218.224,222.249c-.436,11.357-8.159,22.639-23.171,31.306-30.921,17.852-81.054,17.852-111.975,0-15.012-8.667-22.736-19.949-23.171-31.306" fill="none" stroke="#091a23" stroke-width="0.68"/><circle cx="4.072" cy="4.072" r="4.072" transform="translate(96.348 282.011) rotate(180)" fill="#dcff1e" stroke="#091a23" stroke-width="0.68"/><circle cx="4.072" cy="4.072" r="4.072" transform="translate(96.348 326.171) rotate(180)" fill="#dcff1e" stroke="#091a23" stroke-width="0.68"/><circle cx="4.072" cy="4.072" r="4.072" transform="translate(96.348 370.331) rotate(180)" fill="#dcff1e" stroke="#091a23" stroke-width="0.68"/><path d="M459.106,277.987V176.354L547.5,227V328.986Z" fill="#fbffe8" stroke="#091a23" stroke-linecap="round" stroke-width="0.68"/><path d="M476.787,266.736v-56.5a1.943,1.943,0,0,1,2.909-1.686l49.151,28.16a1.946,1.946,0,0,1,.977,1.687v56.7a1.944,1.944,0,0,1-2.915,1.684l-49.15-28.357A1.943,1.943,0,0,1,476.787,266.736Z" fill="#dcff1e" stroke="#091a23" stroke-linecap="round" stroke-linejoin="round" stroke-width="0.68"/><path d="M576.88,210.265l-29.388,16.886V329.008l29.388-17.177Z" fill="#fbffe8" stroke="#091a23" stroke-linecap="round" stroke-width="0.68"/><path d="M459.1,176.39l29.906-17.156,88.21,50.928-29.57,16.862Z" fill="#f1ffa5" stroke="#091a23" stroke-linecap="round" stroke-width="0.68"/><path d="M542.226,315.784a7.9,7.9,0,0,0-3.572-6.187c-1.973-1.139-3.572-.216-3.572,2.062a7.9,7.9,0,0,0,3.572,6.187C540.626,318.985,542.226,318.062,542.226,315.784Z" fill="#dcff1e" stroke="#091a23" stroke-width="0.68"/><path d="M542.226,234.132a7.9,7.9,0,0,0-3.572-6.187c-1.973-1.139-3.572-.216-3.572,2.062a7.9,7.9,0,0,0,3.572,6.187C540.626,237.333,542.226,236.41,542.226,234.132Z" fill="#dcff1e" stroke="#091a23" stroke-width="0.68"/><path d="M471.52,274.979a7.9,7.9,0,0,0-3.572-6.187c-1.973-1.139-3.572-.216-3.572,2.062a7.9,7.9,0,0,0,3.572,6.187C469.92,278.18,471.52,277.256,471.52,274.979Z" fill="#dcff1e" stroke="#091a23" stroke-width="0.68"/><path d="M471.52,193.679a7.9,7.9,0,0,0-3.572-6.187c-1.973-1.139-3.572-.216-3.572,2.062a7.9,7.9,0,0,0,3.572,6.187C469.92,196.88,471.52,195.957,471.52,193.679Z" fill="#dcff1e" stroke="#091a23" stroke-width="0.68"/><path d="M400.369,223.648V122.015l88.4,50.646V274.647Z" fill="#f2fbff" stroke="#091a23" stroke-linecap="round" stroke-width="0.68"/><path d="M418.049,212.4v-56.5a1.944,1.944,0,0,1,2.91-1.687l49.15,28.161a1.943,1.943,0,0,1,.977,1.686v56.7a1.944,1.944,0,0,1-2.915,1.684l-49.15-28.357A1.942,1.942,0,0,1,418.049,212.4Z" fill="#80dbff" stroke="#091a23" stroke-linecap="round" stroke-linejoin="round" stroke-width="0.68"/><path d="M518.142,155.926l-29.388,16.887V274.67l29.388-17.178Z" fill="#f2fbff" stroke="#091a23" stroke-linecap="round" stroke-width="0.68"/><path d="M400.363,122.051,430.269,104.9l88.21,50.928-29.57,16.862Z" fill="#bfedff" stroke="#091a23" stroke-linecap="round" stroke-width="0.68"/><path d="M483.488,261.446a7.9,7.9,0,0,0-3.572-6.187c-1.973-1.139-3.572-.216-3.572,2.062a7.9,7.9,0,0,0,3.572,6.187C481.889,264.647,483.488,263.723,483.488,261.446Z" fill="#80dbff" stroke="#091a23" stroke-width="0.68"/><path d="M483.488,179.793a7.9,7.9,0,0,0-3.572-6.187c-1.973-1.139-3.572-.215-3.572,2.062a7.9,7.9,0,0,0,3.572,6.187C481.889,182.994,483.488,182.071,483.488,179.793Z" fill="#80dbff" stroke="#091a23" stroke-width="0.68"/><path d="M412.782,220.641a7.9,7.9,0,0,0-3.572-6.187c-1.972-1.139-3.572-.216-3.572,2.062a7.9,7.9,0,0,0,3.572,6.187C411.183,223.842,412.782,222.919,412.782,220.641Z" fill="#80dbff" stroke="#091a23" stroke-width="0.68"/><path d="M412.782,139.341a7.9,7.9,0,0,0-3.572-6.187c-1.972-1.139-3.572-.216-3.572,2.062a7.9,7.9,0,0,0,3.572,6.187C411.183,142.542,412.782,141.619,412.782,139.341Z" fill="#80dbff" stroke="#091a23" stroke-width="0.68"/><path d="M342.7,345.777V244.144l88.4,50.646V396.776Z" fill="#f9f4fc" stroke="#091a23" stroke-linecap="round" stroke-width="0.68"/><path d="M360.378,334.526v-56.5a1.943,1.943,0,0,1,2.91-1.686l49.15,28.16a1.943,1.943,0,0,1,.978,1.686v56.7a1.943,1.943,0,0,1-2.915,1.683l-49.15-28.356A1.945,1.945,0,0,1,360.378,334.526Z" fill="#c795e3" stroke="#091a23" stroke-linecap="round" stroke-linejoin="round" stroke-width="0.68"/><path d="M460.472,278.054l-29.388,16.887V396.8l29.388-17.178Z" fill="#f9f4fc" stroke="#091a23" stroke-linecap="round" stroke-width="0.68"/><path d="M342.692,244.18,372.6,227.024l88.21,50.928-29.57,16.862Z" fill="#e3caf1" stroke="#091a23" stroke-linecap="round" stroke-width="0.68"/><path d="M425.817,383.575a7.9,7.9,0,0,0-3.572-6.187c-1.972-1.139-3.572-.216-3.572,2.062a7.9,7.9,0,0,0,3.572,6.187C424.218,386.776,425.817,385.852,425.817,383.575Z" fill="#c795e3" stroke="#091a23" stroke-width="0.68"/><path d="M425.817,301.921a7.9,7.9,0,0,0-3.572-6.186c-1.972-1.139-3.572-.216-3.572,2.062a7.9,7.9,0,0,0,3.572,6.187C424.218,305.123,425.817,304.2,425.817,301.921Z" fill="#c795e3" stroke="#091a23" stroke-width="0.68"/><path d="M355.112,342.769a7.9,7.9,0,0,0-3.572-6.187c-1.973-1.139-3.572-.216-3.572,2.062a7.9,7.9,0,0,0,3.572,6.187C353.513,345.97,355.112,345.047,355.112,342.769Z" fill="#c795e3" stroke="#091a23" stroke-width="0.68"/><path d="M355.112,261.469a7.9,7.9,0,0,0-3.572-6.187c-1.973-1.139-3.572-.215-3.572,2.063a7.9,7.9,0,0,0,3.572,6.186C353.513,264.67,355.112,263.747,355.112,261.469Z" fill="#c795e3" stroke="#091a23" stroke-width="0.68"/><path d="M236.549,335.67c18.39-10.618,42.534-15.935,66.7-15.935s48.308,5.317,66.7,15.935,27.514,24.5,27.514,38.321-9.123,27.7-27.514,38.321-42.534,15.934-66.7,15.934-48.306-5.317-66.7-15.934-27.514-24.5-27.514-38.321S218.158,346.288,236.549,335.67Z" fill="#2d4754" stroke="#091a23" stroke-width="0.644"/><path d="M397.777,401.948h-.035c.684,14.47-8.529,29.068-27.639,40.1-36.9,21.3-96.815,21.3-133.715,0-19.11-11.033-28.324-25.631-27.639-40.1h-.036V373.991c0,13.974,9.225,27.948,27.675,38.6,36.9,21.3,96.815,21.3,133.715,0,18.449-10.652,27.674-24.626,27.674-38.6Z" fill="#163341" stroke="#091a23" stroke-width="0.644" fill-rule="evenodd"/><path d="M248.89,344.166c14.983-8.393,34.661-12.6,54.356-12.6s39.372,4.205,54.356,12.6S380,363.524,380,374.417s-7.413,21.857-22.4,30.251-34.661,12.6-54.356,12.6-39.373-4.2-54.356-12.6-22.4-19.358-22.4-30.251S233.9,352.56,248.89,344.166Z" fill="#5c707a" stroke="#091a23" stroke-width="0.644"/><path d="M225.718,372.642V293.491a77.527,77.527,0,0,1,77.527-77.527h0a77.527,77.527,0,0,1,77.527,77.527v79.151c0,11.352-7.495,22.771-22.629,31.508s-35.007,13.115-54.9,13.115-39.765-4.377-54.9-13.115S225.718,383.994,225.718,372.642Z" fill="rgba(232,248,255,0.5)" stroke="#091a23" stroke-width="0.644"/><g opacity="0.9"><path d="M380.773,84.67v79.151a77.528,77.528,0,0,1-77.528,77.527h0a77.527,77.527,0,0,1-77.527-77.527V84.67c0-11.353,7.494-22.771,22.629-31.509s35.007-13.115,54.9-13.115,39.764,4.378,54.9,13.115S380.773,73.318,380.773,84.67Z" fill="#e8f8ff" stroke="#091a23" stroke-width="0.644"/><path d="M369.941,18.341c-18.389-10.617-42.533-15.935-66.7-15.935s-48.307,5.318-66.7,15.935-27.514,24.5-27.514,38.321,9.123,27.7,27.514,38.321,42.534,15.935,66.7,15.935,48.307-5.318,66.7-15.935,27.514-24.5,27.514-38.321S388.332,28.959,369.941,18.341Z" fill="#2d4754" stroke="#091a23" stroke-width="0.644"/><path d="M208.713,84.618h.036c-.685,14.47,8.529,29.068,27.639,40.1,36.9,21.3,96.815,21.3,133.714,0,19.111-11.034,28.324-25.632,27.64-40.1h.035V56.662c0,13.974-9.225,27.947-27.675,38.6-36.9,21.3-96.814,21.3-133.714,0-18.45-10.652-27.675-24.626-27.675-38.6Z" fill="#163341" stroke="#091a23" stroke-width="0.644" fill-rule="evenodd"/></g><circle cx="12.071" cy="12.071" r="12.071" transform="translate(348.865 225.509) rotate(180)" fill="#c795e3" stroke="#091a23" stroke-width="0.681"/><circle cx="12.071" cy="12.071" r="12.071" transform="translate(311.174 237.92) rotate(180)" fill="#dcff1e" stroke="#091a23" stroke-width="0.681"/><circle cx="12.071" cy="12.071" r="12.071" transform="translate(334.54 210.714) rotate(180)" fill="#dcff1e" stroke="#091a23" stroke-width="0.681"/><circle cx="12.071" cy="12.071" r="12.071" transform="translate(298.763 213.097) rotate(180)" fill="#c795e3" stroke="#091a23" stroke-width="0.681"/><circle cx="12.071" cy="12.071" r="12.071" transform="translate(290.641 228.071) rotate(180)" fill="#80dbff" stroke="#091a23" stroke-width="0.681"/><circle cx="12.071" cy="12.071" r="12.071" transform="translate(315.463 220.675) rotate(180)" fill="#c795e3" stroke="#091a23" stroke-width="0.681"/><circle cx="12.071" cy="12.071" r="12.071" transform="translate(334.54 233.087) rotate(180)" fill="#80dbff" stroke="#091a23" stroke-width="0.681"/><circle cx="12.071" cy="12.071" r="12.071" transform="translate(318.825 275.924) rotate(180)" fill="#80dbff" stroke="#091a23" stroke-width="0.681"/><circle cx="12.071" cy="12.071" r="12.071" transform="translate(300.676 310.516) rotate(180)" fill="#dcff1e" stroke="#091a23" stroke-width="0.681"/><circle cx="12.071" cy="12.071" r="12.071" transform="translate(336.794 361.949) rotate(180)" fill="#dcff1e" stroke="#091a23" stroke-width="0.681"/><circle cx="12.071" cy="12.071" r="12.071" transform="translate(303.051 361.266) rotate(180)" fill="#dcff1e" stroke="#091a23" stroke-width="0.681"/><circle cx="12.071" cy="12.071" r="12.071" transform="translate(261.987 369.128) rotate(180)" fill="#dcff1e" stroke="#091a23" stroke-width="0.681"/><circle cx="12.071" cy="12.071" r="12.071" transform="translate(286.809 410.406) rotate(180)" fill="#dcff1e" stroke="#091a23" stroke-width="0.681"/><circle cx="12.071" cy="12.071" r="12.071" transform="translate(328.713 383.113) rotate(180)" fill="#80dbff" stroke="#091a23" stroke-width="0.681"/><circle cx="12.071" cy="12.071" r="12.071" transform="translate(352.697 370.702) rotate(180)" fill="#80dbff" stroke="#091a23" stroke-width="0.681"/><circle cx="12.071" cy="12.071" r="12.071" transform="translate(306.414 399.182) rotate(180)" fill="#80dbff" stroke="#091a23" stroke-width="0.681"/><circle cx="12.071" cy="12.071" r="12.071" transform="translate(262.826 391.431) rotate(180)" fill="#c795e3" stroke="#091a23" stroke-width="0.681"/><circle cx="12.071" cy="12.071" r="12.071" transform="translate(345.221 386.771) rotate(180)" fill="#dcff1e" stroke="#091a23" stroke-width="0.681"/><circle cx="12.071" cy="12.071" r="12.071" transform="translate(331.237 403.803) rotate(180)" fill="#c795e3" stroke="#091a23" stroke-width="0.681"/><circle cx="12.071" cy="12.071" r="12.071" transform="translate(315.934 412.278) rotate(180)" fill="#dcff1e" stroke="#091a23" stroke-width="0.681"/><circle cx="12.071" cy="12.071" r="12.071" transform="translate(318.825 352.674) rotate(180)" fill="#80dbff" stroke="#091a23" stroke-width="0.681"/><circle cx="12.071" cy="12.071" r="12.071" transform="translate(280.395 366.609) rotate(180)" fill="#c795e3" stroke="#091a23" stroke-width="0.681"/><circle cx="12.071" cy="12.071" r="12.071" transform="translate(287.648 383.112) rotate(180)" fill="#80dbff" stroke="#091a23" stroke-width="0.681"/><circle cx="12.071" cy="12.071" r="12.071" transform="translate(313.088 376.598) rotate(180)" fill="#c795e3" stroke="#091a23" stroke-width="0.681"/><circle cx="12.071" cy="12.071" r="12.071" transform="translate(367.174 385.583) rotate(180)" fill="#c795e3" stroke="#091a23" stroke-width="0.681"/><circle cx="12.071" cy="12.071" r="12.071" transform="translate(359.363 401.441) rotate(180)" fill="#80dbff" stroke="#091a23" stroke-width="0.681"/><circle cx="12.071" cy="12.071" r="12.071" transform="translate(303.523 344.587) rotate(180)" fill="#c795e3" stroke="#091a23" stroke-width="0.681"/><path d="M322.47,247.078V259.49" fill="none" stroke="#091a23" stroke-linecap="round" stroke-width="0.92"/><path d="M325.94,250.846v12.412" fill="none" stroke="#091a23" stroke-linecap="round" stroke-width="0.92"/><path d="M274.281,279.829V292.24" fill="none" stroke="#091a23" stroke-linecap="round" stroke-width="0.92"/><path d="M271.38,287.316v12.411" fill="none" stroke="#091a23" stroke-linecap="round" stroke-width="0.92"/></g></svg>