<?xml version="1.0" encoding="UTF-8"?> <svg xmlns="http://www.w3.org/2000/svg" xmlns:xlink="http://www.w3.org/1999/xlink" id="verse4_-_even" data-name="verse4 - even" viewBox="0 0 540 400"><defs><style> .cls-1 { fill: #55c6c2; } .cls-1, .cls-2, .cls-3, .cls-4, .cls-5, .cls-6, .cls-7, .cls-8, .cls-9, .cls-10, .cls-11 { stroke-width: 0px; } .cls-12 { filter: url(#drop-shadow-2); } .cls-12, .cls-13, .cls-14, .cls-15, .cls-16 { stroke: #073c8c; stroke-miterlimit: 10; } .cls-12, .cls-13, .cls-15 { fill: #fff; } .cls-2 { fill: none; } .cls-13 { filter: url(#drop-shadow-1); } .cls-3 { fill: #aec8ef; } .cls-4 { fill: #2d4047; } .cls-5 { fill: url(#linear-gradient); fill-rule: evenodd; } .cls-6 { fill: #4274be; } .cls-14, .cls-11 { fill: #308be3; } .cls-17 { clip-path: url(#clippath); } .cls-7 { fill: #d6e9fb; } .cls-15 { filter: url(#drop-shadow-3); } .cls-8 { fill: #acf2e5; } .cls-9 { fill: #def9f4; } .cls-10, .cls-16 { fill: #073c8c; } </style><linearGradient id="linear-gradient" x1="244.77" y1="399.5" x2="244.77" y2=".5" gradientUnits="userSpaceOnUse"><stop offset="0" stop-color="#fff" stop-opacity="0"></stop><stop offset=".02" stop-color="rgba(248, 250, 252, .02)" stop-opacity=".02"></stop><stop offset=".36" stop-color="rgba(145, 168, 204, .44)" stop-opacity=".44"></stop><stop offset=".64" stop-color="rgba(70, 109, 169, .74)" stop-opacity=".74"></stop><stop offset=".87" stop-color="rgba(24, 73, 147, .93)" stop-opacity=".93"></stop><stop offset="1" stop-color="#073c8c"></stop></linearGradient><filter id="drop-shadow-1" filterUnits="userSpaceOnUse"><feOffset dx="7" dy="7"></feOffset><feGaussianBlur result="blur" stdDeviation="10"></feGaussianBlur><feFlood flood-color="#000" flood-opacity=".05"></feFlood><feComposite in2="blur" operator="in"></feComposite><feComposite in="SourceGraphic"></feComposite></filter><filter id="drop-shadow-2" filterUnits="userSpaceOnUse"><feOffset dx="7" dy="7"></feOffset><feGaussianBlur result="blur-2" stdDeviation="10"></feGaussianBlur><feFlood flood-color="#000" flood-opacity=".05"></feFlood><feComposite in2="blur-2" operator="in"></feComposite><feComposite in="SourceGraphic"></feComposite></filter><clipPath id="clippath"><path class="cls-2" d="M125.36,255.64c.6-.59,1.55-.64,2.2-.11l13.37,10.89c3.27,2.72,3.5,7.65.48,10.66-2.86,2.85-7.46,2.79-10.26,0-.15-.15-.3-.32-.45-.49l-11.02-13.2c-.55-.65-.5-1.62.1-2.22l5.58-5.54h0Z"></path></clipPath><filter id="drop-shadow-3" filterUnits="userSpaceOnUse"><feOffset dx="7" dy="7"></feOffset><feGaussianBlur result="blur-3" stdDeviation="10"></feGaussianBlur><feFlood flood-color="#000" flood-opacity=".05"></feFlood><feComposite in2="blur-3" operator="in"></feComposite><feComposite in="SourceGraphic"></feComposite></filter></defs><path class="cls-5" d="M477.07,40.13c0-21.89-17.74-39.63-39.63-39.63H134.09c-21.89,0-39.63,17.74-39.63,39.63,0,21.89,17.74,39.63,39.63,39.63h20.52c21.88.01,39.61,17.75,39.61,39.63,0,21.87-17.72,39.6-39.59,39.63h-.04s-101.8,0-101.8,0c-22.26,0-40.31,18.05-40.31,40.31,0,22.26,18.05,40.31,40.31,40.31h192.01s.02,0,.02,0c22.03.02,39.87,17.88,39.87,39.91,0,19.73-14.31,36.11-33.12,39.34h-21.15c-22.26,0-40.31,18.05-40.31,40.31,0,22.26,18.05,40.31,40.31,40.31h199.5c22.26,0,40.31-18.05,40.31-40.31s-18.05-40.31-40.31-40.31h-32.19c18.81-3.23,33.12-19.61,33.12-39.34,0-22.04-17.87-39.91-39.91-39.91h-11.53c22.24-.02,40.26-18.06,40.26-40.31,0-22.26-18.05-40.31-40.31-40.31h-82.87c-17.2-4.6-29.86-20.29-29.86-38.94,0-22.25,18.03-40.3,40.29-40.31h130.52c21.89,0,39.63-17.74,39.63-39.63Z"></path><path class="cls-4" d="M367.62,290.01c.44.04.5-.65.06-.69s-.5.65-.06.69Z"></path><path class="cls-3" d="M325.29,368.5c-2.01-2.07-4.05-4.12-6.11-6.14-16.03-15.67-33.74-29.6-53.08-41.47-2.33-1.43-4.67-2.82-7.05-4.19-1.99-1.14-3.99-2.27-6.01-3.37-21.33-11.63-44.03-20.75-67.47-27.14-1.64-.45-3.29-.88-4.94-1.3-.37-.1-.75-.19-1.12-.29-.45-.11-.91-.23-1.36-.34-15-3.74-30.68-6.83-46.35-7.99-3.28-.24-6.55-.4-9.82-.46-5.78-.11-11.53.08-17.23.63-.64.06-.49,1,.08,1.06,5.12.6,10.23,1.15,15.32,1.7,4,.43,7.98.86,11.96,1.31,15.04,1.71,29.97,3.73,44.84,7.31.51.12,1.02.25,1.54.37.82.2,1.63.41,2.45.62,1.45.38,2.89.76,4.33,1.16,23.31,6.42,45.9,15.54,67.07,27.23,1.72.95,3.42,1.91,5.12,2.89,2.22,1.28,4.42,2.59,6.61,3.92,19.47,11.88,37.76,25.94,54.33,41.8,1.6,1.53,3.18,3.08,4.75,4.64,4.22,4.21,8.32,8.54,12.29,12.97"></path><path class="cls-10" d="M324.73,353.95c-1.1-1.83-2.19-3.68-3.25-5.53-10.24-17.89-18.55-36.87-24.71-56.39-.75-2.38-1.47-4.76-2.15-7.15-.08-.28-.16-.56-.24-.84-6.32-22.3-9.8-45.37-10.44-68.54-.03-.93-.05-1.86-.06-2.8-.02-1.2-.03-2.39-.03-3.58,0-.64,0-1.28,0-1.92.14-13.65,1.61-27.04,3.3-40.46.45-3.59.92-7.18,1.39-10.77.59-4.6,1.18-9.21,1.71-13.85.07-.64-.86-.68-1.06-.15-1.76,4.86-3.2,9.86-4.38,14.96-.65,2.8-1.21,5.62-1.71,8.47-2.4,13.79-3.11,28.05-3.04,41.86,0,.67,0,1.34.02,2.01.02,1.68.05,3.36.08,5.02,0,.22.01.43.02.65.6,23.89,4.19,47.71,10.75,70.69.09.31.18.62.27.93.65,2.23,1.32,4.46,2.02,6.66,6.17,19.4,14.48,37.78,24.64,55.06,1.43,2.44,2.9,4.85,4.41,7.25,5.03,8,10.46,15.75,16.26,23.25"></path><path class="cls-6" d="M345.86,375.19c1.32-5.28,2.9-10.51,4.71-15.65.41-1.15.83-2.3,1.26-3.45,4.49-11.91,10.26-23.34,17.15-33.94.76-1.17,1.54-2.34,2.33-3.49.01-.02.02-.03.03-.05,8.2-11.96,17.92-22.83,28.85-32.35l.02-.02c.98-.86,1.98-1.69,2.98-2.51.24-.2.48-.39.72-.59,6.58-5.3,13.54-9.9,20.63-14.37,1.88-1.18,3.76-2.36,5.65-3.53,2.41-1.5,4.82-3,7.24-4.53.33-.21.08-.66-.27-.53-2.96,1.08-5.86,2.36-8.71,3.79-1.61.81-3.21,1.66-4.78,2.56-7.53,4.3-14.64,9.57-21.22,15.07-.22.18-.44.37-.65.55-.89.75-1.77,1.5-2.64,2.26-.12.1-.24.21-.36.31-10.99,9.57-20.8,20.54-29.06,32.55-.06.08-.12.17-.17.25-.8,1.17-1.59,2.35-2.35,3.54-6.83,10.55-12.33,21.74-16.58,33.38-.56,1.53-1.09,3.06-1.61,4.6"></path><rect class="cls-13" x="194.53" y="7.78" width="170.82" height="170.82" rx="83.25" ry="83.25" transform="translate(-13.25 60.14) rotate(-11.98)"></rect><g><path class="cls-16" d="M324.24,112.39c-7.43,17.12-24.47,29.08-44.31,29.08-.81,0-1.61-.02-2.4-.06-25.55-1.26-45.88-22.37-45.88-48.24,0-4.32.58-8.52,1.65-12.51,1.09-1.16,2.62-1.89,4.32-1.89,3.3,0,5.98,2.71,5.98,6.03v1.94s-.01.07-.01.09v14.69c0,6.08,4.92,11.02,10.98,11.02,6.05,0,10.98-4.94,10.98-11.02v-11.85s-.01-.07-.01-.12v-4.76c0-3.32,2.69-6.03,5.98-6.03s5.98,2.71,5.98,6.03v16.72c0,6.08,4.92,11.02,10.97,11.02,6.05,0,10.98-4.94,10.98-11.02v-11.85s-.01-.07-.01-.12v-4.76c0-3.32,2.69-6.03,5.98-6.03,3.3,0,5.98,2.71,5.98,6.03v16.72c0,5.59,4.17,10.23,9.55,10.93.46.06.94.09,1.41.09.65,0,1.28-.07,1.9-.17"></path><path class="cls-14" d="M328.23,93.18c0,4.38-.59,8.6-1.68,12.63,0,0,0,.01,0,.02,0,0-.01.01-.02.01-1.08,1.07-2.55,1.73-4.18,1.73-3.3,0-5.98-2.71-5.98-6.03v-16.72c0-6.08-4.92-11.03-10.97-11.03-6.05,0-10.98,4.95-10.98,11.03v13.46s.01.07.01.1v3.16c0,3.32-2.69,6.03-5.98,6.03s-5.98-2.71-5.98-6.03v-16.72c0-6.08-4.92-11.03-10.97-11.03-6.05,0-10.98,4.95-10.98,11.03v13.46s.01.07.01.1v3.16c0,3.32-2.69,6.03-5.98,6.03-3.3,0-5.98-2.71-5.98-6.03v-1.94s.01-.06.01-.09v-14.68c0-6.08-4.92-11.01-10.97-11.03-.68,0-1.34.07-1.99.19,7.43-17.12,24.47-29.09,44.31-29.09h.78c26.31.42,47.51,21.88,47.51,48.28"></path></g><rect class="cls-12" x="26.33" y="159.06" width="170.86" height="170.86" rx="83.26" ry="83.26"></rect><g><circle class="cls-14" cx="111.76" cy="244.49" r="48.29"></circle><g><g id="Brush"><path class="cls-7" d="M85.95,234.39c-1.62-1.71-4.33-1.8-6.05-.19h0c-1.72,1.61-1.81,4.31-.19,6.02l9.86,10.44.49.52,27.18-25.42-6.18-6.54-3.92-4.15-8.03-8.5c-1.62-1.71-4.33-1.8-6.05-.19h0c-1.72,1.61-1.81,4.31-.19,6.02l7.98,8.45c1.1,1.16,1.04,2.99-.13,4.09h0c-1.17,1.09-3.01,1.04-4.11-.13l-3.84-4.06c-1.62-1.71-4.33-1.8-6.05-.19h0c-1.72,1.61-1.81,4.31-.19,6.02l5.75,6.09c1.1,1.16,1.04,2.99-.13,4.09h0c-1.17,1.09-3.01,1.04-4.11-.13l-2.14-2.27"></path><g><g id="g2716"><g id="g2722"><g id="path2724"><path class="cls-10" d="M122.83,259.42c-.21,0-.43-.08-.59-.24l-1.81-1.8c-.85-.85-1.32-1.98-1.32-3.18s.47-2.33,1.32-3.18l11.18-11.13c1.41-1.41,2.19-3.28,2.19-5.27s-.78-3.86-2.19-5.27l-3.39-3.38c-.81-.8-1.88-1.24-3.02-1.24s-2.21.44-3.02,1.24c-.33.33-.86.33-1.19,0-.33-.33-.33-.86,0-1.19,1.12-1.12,2.62-1.73,4.2-1.73s3.08.62,4.2,1.73l3.39,3.38c1.73,1.73,2.69,4.02,2.69,6.46,0,2.44-.95,4.74-2.69,6.46l-11.18,11.13c-.53.53-.83,1.24-.83,1.99,0,.75.29,1.46.83,1.99l1.81,1.8c.33.33.33.86,0,1.19-.16.16-.38.25-.6.25Z"></path></g></g><g><path class="cls-7" d="M100.18,235.45l-11.54,11.48c-1.79,1.78-1.79,4.67,0,6.45l.46.46h0l4.13,4.11c1.79,1.78,4.69,1.78,6.48,0l1.68-1.67,5.08-5.05,3.52-3.5,5.68-5.65,8.11-8.07c1.79-1.78,1.79-4.67,0-6.45l-4.59-4.57c-1.79-1.78-4.69-1.78-6.48,0l-12.52,12.46"></path><path class="cls-10" d="M96.48,260.12c-1.39,0-2.78-.53-3.84-1.58l-4.59-4.57c-1.03-1.02-1.59-2.38-1.59-3.82,0-1.44.57-2.8,1.59-3.82l11.54-11.48s.02-.02.03-.03l12.49-12.43c2.11-2.1,5.55-2.1,7.67,0l4.59,4.57c1.03,1.02,1.59,2.38,1.59,3.82,0,1.44-.57,2.8-1.59,3.82l-24.06,23.94c-1.06,1.05-2.44,1.58-3.83,1.58ZM100.74,236.08l-11.5,11.45c-.71.7-1.1,1.64-1.1,2.63s.39,1.93,1.1,2.63l4.59,4.57c1.46,1.45,3.84,1.45,5.3,0l24.06-23.94c.71-.7,1.1-1.64,1.1-2.63,0-.99-.39-1.93-1.1-2.63l-4.59-4.57c-1.46-1.45-3.84-1.45-5.3,0l-12.52,12.46s-.02.02-.03.03Z"></path></g></g><path class="cls-10" d="M116.4,242.07c-.45,0-.82-.36-.84-.81l-.35-10.38c-.02-.46.35-.85.81-.87.46-.02.85.35.87.81l.35,10.38c.02.46-.35.85-.81.87,0,0-.02,0-.03,0Z"></path><path class="cls-10" d="M110.8,236.88c-.45,0-.82-.36-.84-.81l-.35-10.47c-.02-.46.35-.85.81-.87,0,0,.02,0,.03,0,.45,0,.82.36.84.81l.35,10.47c.02.46-.35.85-.81.87,0,0-.02,0-.03,0Z"></path><path class="cls-10" d="M106.87,251.68c-.45,0-.82-.36-.84-.81l-.37-11.16c-.02-.46.35-.85.81-.87.46-.01.85.35.87.81l.37,11.16c.02.46-.35.85-.81.87,0,0-.02,0-.03,0Z"></path><path class="cls-10" d="M101.19,246.3c-.45,0-.82-.36-.84-.81l-.35-10.49c-.02-.46.35-.85.81-.87.46-.02.85.35.87.81l.35,10.49c.02.46-.35.85-.81.87,0,0-.02,0-.03,0Z"></path><path class="cls-10" d="M96.64,260.12c-.45,0-.82-.36-.84-.81l-.35-10.39c-.02-.46.35-.85.81-.87.46-.02.85.35.87.81l.35,10.39c.02.46-.35.85-.81.87,0,0-.02,0-.03,0Z"></path><circle class="cls-10" cx="116.05" cy="227.83" r=".83"></circle><circle class="cls-10" cx="96.18" cy="245.61" r=".83"></circle></g></g><g><g id="path2732"><path class="cls-10" d="M125.36,255.64c.6-.59,1.55-.64,2.2-.11l13.37,10.89c3.27,2.72,3.5,7.65.48,10.66-2.86,2.85-7.46,2.79-10.26,0-.15-.15-.3-.32-.45-.49l-11.02-13.2c-.55-.65-.5-1.62.1-2.22l5.58-5.54h0Z"></path></g><g class="cls-17"><rect class="cls-7" x="118.21" y="259.87" width="12.75" height="1.45" transform="translate(-147.78 164.42) rotate(-45)"></rect></g></g></g></g><rect class="cls-15" x="356.66" y="159.06" width="170.85" height="170.85" rx="83.26" ry="83.26" transform="translate(268.85 -230.07) rotate(41)"></rect><g><path class="cls-11" d="M467.68,277.62h0c7.04,0,12.74-5.49,12.74-12.26v-14.69c0-6.77-5.7-12.26-12.74-12.26h0c-7.04,0-10.2,6.18-10.2,12.95v14.69c0,2.65-.14,6.06.2,9.3.13,1.27,1.19,2.26,2.51,2.38,2.31.21,4.7-.11,7.49-.11h0Z"></path><path class="cls-11" d="M442.09,279.28h0c-8.48,0-15.36-6.88-15.36-15.36v-18.41c0-8.48,6.88-15.36,15.36-15.36h0c8.48,0,15.36,6.88,15.36,15.36v18.41c0,8.48-6.88,15.36-15.36,15.36Z"></path><g><circle class="cls-7" cx="415.27" cy="227.1" r="7.19"></circle><path class="cls-10" d="M415.27,234.96c-4.33,0-7.86-3.53-7.86-7.86,0-4.33,3.53-7.86,7.86-7.86,4.33,0,7.86,3.53,7.86,7.86,0,4.33-3.53,7.86-7.86,7.86ZM415.27,220.58c-3.59,0-6.52,2.92-6.52,6.52,0,3.59,2.92,6.52,6.52,6.52,3.59,0,6.52-2.92,6.52-6.52,0-3.59-2.92-6.52-6.52-6.52Z"></path></g><g><circle class="cls-7" cx="468.92" cy="227.1" r="7.19"></circle><path class="cls-10" d="M468.92,234.96c-4.33,0-7.86-3.53-7.86-7.86,0-4.33,3.53-7.86,7.86-7.86s7.86,3.53,7.86,7.86c0,4.33-3.53,7.86-7.86,7.86ZM468.92,220.58c-3.59,0-6.52,2.92-6.52,6.52,0,3.59,2.92,6.52,6.52,6.52,3.59,0,6.52-2.92,6.52-6.52,0-3.59-2.92-6.52-6.52-6.52Z"></path></g><path class="cls-10" d="M466.44,278.51h-4.71c-.37,0-.67-.3-.67-.67s.3-.67.67-.67h4.71c7.34,0,13.31-5.97,13.31-13.31v-13.98c0-5.97-4.86-10.83-10.83-10.83-5.97,0-10.83,4.86-10.83,10.83,0,.37-.3.67-.67.67s-.67-.3-.67-.67c0-6.71,5.46-12.17,12.17-12.17s12.17,5.46,12.17,12.17v13.98c0,8.08-6.57,14.65-14.65,14.65Z"></path><path class="cls-11" d="M416.5,277.62h0c-7.04,0-12.74-5.49-12.74-12.26v-14.69c0-6.77,5.7-12.26,12.74-12.26h0c7.04,0,10.2,6.18,10.2,12.95v14.69c0,2.65.14,6.06-.2,9.3-.13,1.27-1.19,2.26-2.51,2.38-2.31.21-4.7-.11-7.49-.11h0Z"></path><path class="cls-10" d="M422.45,278.51h-4.71c-8.08,0-14.65-6.57-14.65-14.65v-13.98c0-6.71,5.46-12.17,12.17-12.17,6.71,0,12.17,5.46,12.17,12.17,0,.37-.3.67-.67.67s-.67-.3-.67-.67c0-5.97-4.86-10.83-10.83-10.83-5.97,0-10.83,4.86-10.83,10.83v13.98c0,7.34,5.97,13.31,13.31,13.31h4.71c.37,0,.67.3.67.67s-.3.67-.67.67Z"></path><path class="cls-10" d="M442.09,279.89c-8.82,0-16-7.18-16-16v-18.36c0-8.82,7.18-16,16-16,8.82,0,16,7.18,16,16v18.36c0,8.82-7.18,16-16,16ZM442.09,230.87c-8.08,0-14.65,6.57-14.65,14.65v18.36c0,8.08,6.57,14.65,14.65,14.65,8.08,0,14.65-6.57,14.65-14.65v-18.36c0-8.08-6.57-14.65-14.65-14.65Z"></path><g><ellipse class="cls-7" cx="442.09" cy="215.24" rx="9.95" ry="9.94"></ellipse><path class="cls-10" d="M442.09,225.86c-5.86,0-10.62-4.76-10.62-10.61,0-5.85,4.76-10.61,10.62-10.61,5.86,0,10.62,4.76,10.62,10.61,0,5.85-4.76,10.61-10.62,10.61ZM442.09,205.97c-5.12,0-9.28,4.16-9.28,9.27s4.16,9.27,9.28,9.27c5.12,0,9.28-4.16,9.28-9.27s-4.16-9.27-9.28-9.27Z"></path></g></g><path class="cls-1" d="M339.2,374.88c1.05-1.72,2.19-3.39,3.41-5,.27-.36.55-.72.83-1.08,2.91-3.71,6.22-7.1,9.84-10.08.4-.33.8-.65,1.21-.97,0,0,.01,0,.02-.01,4.23-3.31,8.87-6.07,13.8-8.22h.01c.44-.2.89-.38,1.33-.56.11-.04.21-.08.32-.13,2.91-1.14,5.89-1.99,8.89-2.78.79-.21,1.59-.41,2.39-.62,1.02-.26,2.04-.52,3.06-.79.14-.04.1-.22-.04-.22-1.16.05-2.33.18-3.5.37-.66.11-1.32.23-1.97.37-3.14.68-6.24,1.75-9.17,2.96-.1.04-.2.08-.29.12-.4.17-.79.33-1.19.5-.05.02-.11.05-.16.07-4.95,2.16-9.64,4.94-13.89,8.26-.03.02-.06.05-.09.07-.41.32-.82.65-1.23.99-3.59,2.97-6.78,6.31-9.57,9.95-.37.48-.73.96-1.08,1.45"></path><path class="cls-9" d="M262.84,357.09c3.12-.33,6.23-.55,9.29-.66.69-.02,1.37-.04,2.05-.06,7.1-.14,13.97.32,20.4,1.37.71.12,1.42.24,2.12.37.01,0,.02,0,.03,0,7.27,1.36,13.97,3.51,19.92,6.37h.01c.53.26,1.06.53,1.57.8.12.06.25.13.37.2,3.33,1.79,6.27,3.86,9.14,5.99.76.57,1.51,1.14,2.27,1.71.96.73,1.93,1.46,2.91,2.19.13.1.39-.07.3-.2-.74-1.02-1.59-1.99-2.53-2.9-.53-.52-1.09-1.02-1.67-1.51-2.79-2.34-6.12-4.35-9.57-6.12-.11-.06-.23-.12-.34-.17-.47-.24-.94-.47-1.42-.7-.06-.03-.13-.06-.19-.09-5.99-2.88-12.74-5.05-20.05-6.42-.05,0-.1-.02-.15-.03-.71-.13-1.43-.26-2.15-.37-6.4-1.03-13.12-1.42-20.06-1.23-.91.03-1.82.06-2.74.11"></path><path class="cls-8" d="M340.78,372.22c-.36-.68-.72-1.36-1.06-2.05-3.34-6.63-5.97-13.61-7.82-20.75-.22-.87-.44-1.74-.64-2.61-.02-.1-.05-.2-.07-.31-1.85-8.14-2.66-16.5-2.45-24.84,0-.34.02-.67.03-1.01.02-.43.03-.86.06-1.29.01-.23.03-.46.04-.69.31-4.9,1.09-9.69,1.96-14.49.23-1.28.47-2.56.7-3.85.3-1.64.6-3.29.88-4.95.04-.23-.3-.26-.38-.07-.72,1.71-1.34,3.49-1.86,5.3-.29.99-.54,2-.78,3.01-1.12,4.91-1.65,10.03-1.89,14.99-.01.24-.02.48-.03.72-.03.61-.05,1.21-.07,1.81,0,.08,0,.16,0,.23-.24,8.6.6,17.24,2.52,25.63.03.11.05.23.08.34.19.82.39,1.63.6,2.44,1.85,7.09,4.49,13.86,7.81,20.27.47.9.95,1.8,1.45,2.69,1.66,2.97,3.46,5.86,5.41,8.67"></path></svg> 