<svg width="233" height="47" viewBox="0 0 233 47" fill="none" xmlns="http://www.w3.org/2000/svg">
<rect width="46.2883" height="46.2883" fill="#F6143F"/>
<path d="M26.6388 32.0572V14.4842H29.9542V29.267H37.4058V32.0572H26.6388Z" fill="white"/>
<path d="M9.57031 32.057L13.7174 24.8899C12.7452 24.5238 11.9211 23.847 11.3731 22.9646C10.825 22.0822 10.5836 21.0435 10.6864 20.0098V19.8675C10.6864 15.2281 14.1879 14.3965 18.4225 14.3965C20.1951 14.3965 21.7817 14.3965 23.3354 14.5059V32.0898H20.1185V25.6011H18.4881C17.941 25.6011 17.3939 25.6011 16.9562 25.6011L13.0718 32.1117L9.57031 32.057ZM13.9471 20.0207C13.9471 22.2967 15.293 22.9422 18.324 22.9422C18.9367 22.9422 19.5276 22.9422 20.1403 22.9422V17.1758C15.8401 17.1758 13.9471 17.1758 13.9471 19.9113V20.0207Z" fill="white"/>
<path d="M195.27 14.8534L190.848 29.4535L183.392 29.4535L183.392 14.8534L180.094 14.8534L180.094 32.1773L193.359 32.1773L194.916 27.3165L200.558 27.3165L202.071 32.1773H205.537L200.231 14.8184L195.27 14.8534ZM195.508 24.6627L196.994 19.8807C197.251 19.0048 197.419 18.0764 197.604 17.1393H197.817C197.97 18.0633 198.174 18.9784 198.427 19.8807L199.895 24.6627L195.508 24.6627Z" fill="#F6143F"/>
<path d="M216.822 23.2892C217.516 22.9695 218.098 22.452 218.493 21.803C218.889 21.154 219.08 20.4029 219.042 19.6458V19.4356C219.042 15.5294 216.141 14.7148 211.445 14.7148C209.438 14.7148 208.588 14.7586 206.28 14.855L206.28 32.1789C208.5 32.2752 209.349 32.319 211.348 32.319C215.885 32.319 219.139 31.5045 219.139 27.1604V26.9239C219.175 26.1561 218.972 25.396 218.557 24.746C218.143 24.0961 217.537 23.5876 216.822 23.2892V23.2892ZM209.491 17.4036H211.445C214.257 17.4036 215.867 17.5613 215.867 19.5494V19.7596C215.867 21.2135 215.212 22.0981 212.497 22.0981L209.526 22.0981L209.491 17.4036ZM215.902 27.1954C215.902 29.6477 213.974 29.6653 210.384 29.6653H209.499V24.4628L212.489 24.4628C215.186 24.4628 215.893 25.4175 215.911 26.9327L215.902 27.1954Z" fill="#F6143F"/>
<path d="M228.767 22.2375L226.389 21.2741C224.62 20.5821 224.142 20.0391 224.142 18.9882C224.142 17.5868 225.257 17.2365 227.308 17.2365C229.148 17.2365 230.943 17.4204 232.287 17.543V15.0644C230.607 14.6914 228.889 14.5034 227.167 14.5039C223.01 14.5039 220.888 15.7125 220.888 19.0845C220.888 21.6069 222.285 23.0783 224.876 24.1293L227.529 25.2065C229.298 25.9247 229.723 26.5553 229.723 27.6851C229.723 29.2441 228.706 29.8309 226.583 29.8309C224.811 29.83 223.039 29.7364 221.277 29.5507V32.0468C223.095 32.4199 224.948 32.6019 226.804 32.5898C230.74 32.5898 232.995 30.8381 232.995 27.6589C233.092 24.7161 231.863 23.4724 228.767 22.2375Z" fill="#F6143F"/>
<path d="M61.0918 20.1616V20.3193C61.0918 22.9467 62.2503 24.3393 64.1163 25.1363L59.9863 32.178L63.5238 32.178L67.3885 25.7582C67.8573 25.7582 68.379 25.7582 68.9185 25.7582L70.5546 25.7582L70.5546 32.178L73.756 32.178L73.756 14.8541C72.1995 14.784 70.6253 14.7402 68.8477 14.7402C64.585 14.7402 61.0918 15.581 61.0918 20.1616ZM70.5104 23.192C69.8913 23.192 69.2988 23.192 68.6886 23.192C65.6728 23.192 64.3197 22.5614 64.3197 20.3193V20.1791C64.3197 17.4903 66.2123 17.4641 70.5104 17.4641L70.5104 23.192Z" fill="black"/>
<path d="M94.547 26.9226C94.2374 27.9298 94.0252 29.0946 93.8395 30.0317C93.6007 29.1559 93.4327 27.9298 93.132 26.9226L89.5149 14.8887L75.8955 14.8887L75.8955 32.1775L87.0563 32.1775V29.55L79.2031 29.55L79.2031 24.6191L86.5611 24.6191V21.9916L79.2031 21.9916L79.2031 17.6125L86.906 17.6125L91.3279 32.2564L96.1389 32.2564L101.445 14.8974L98.1199 14.8974L94.547 26.9226Z" fill="black"/>
<path d="M102.403 32.2134L113.564 32.2134V29.5334L105.711 29.5334L105.711 24.6025L113.069 24.6025V21.9837L105.711 21.9837L105.711 17.5696L113.564 17.5696V14.8545L102.403 14.8545L102.403 32.2134Z" fill="black"/>
<path d="M128.099 20.3193V20.1616C128.099 15.581 124.606 14.7402 120.379 14.7402C118.61 14.7402 117.036 14.784 115.479 14.8541L115.479 32.178L118.681 32.178L118.681 25.7757H120.317C120.856 25.7757 121.378 25.7757 121.847 25.7757L125.721 32.1955L129.214 32.1955L125.075 25.1714C126.941 24.3393 128.099 22.9643 128.099 20.3193ZM124.863 20.3193C124.863 22.5614 123.518 23.192 120.503 23.192C119.893 23.192 119.3 23.192 118.681 23.192L118.681 17.4903C122.979 17.4903 124.872 17.4903 124.872 20.2054L124.863 20.3193Z" fill="black"/>
<path d="M137.467 22.2375L135.088 21.2828C133.319 20.5822 132.841 20.0391 132.841 18.9881C132.841 17.5868 133.956 17.2365 136.007 17.2365C137.847 17.2365 139.642 17.4292 140.987 17.543V15.0644C139.306 14.6926 137.588 14.5046 135.866 14.5039C131.709 14.5039 129.587 15.7213 129.587 19.0845C129.587 21.6069 130.975 23.0783 133.575 24.1293L136.229 25.2065C137.997 25.9247 138.422 26.5641 138.422 27.6851C138.422 29.2441 137.405 29.8309 135.282 29.8309C133.525 29.8284 131.768 29.7349 130.02 29.5506V32.0555C131.837 32.4198 133.686 32.5988 135.539 32.5898C139.483 32.5898 141.729 30.8381 141.729 27.6589C141.756 24.7161 140.536 23.4724 137.467 22.2375Z" fill="black"/>
<path d="M146.509 14.8545L143.21 14.8545L143.21 32.2134L146.509 32.2134L146.509 14.8545Z" fill="black"/>
<path d="M159.789 24.2959C159.789 25.3469 159.789 26.5643 159.878 27.5891H159.789C159.409 26.7132 158.905 25.7411 158.445 24.9616L152.856 14.872L149.026 14.872L149.026 32.1784H152.051L152.051 22.4216C152.051 21.3706 151.998 20.3022 151.954 19.3212H151.998C152.405 20.1971 152.882 21.1167 153.324 21.9487L158.94 32.2485L162.787 32.2485L162.787 14.8545L159.789 14.8545L159.789 24.2959Z" fill="black"/>
<path d="M173.281 22.9646L173.281 25.4519L174.625 25.4519V29.6646C174.015 29.7172 173.139 29.7347 172.264 29.7347C169.434 29.7347 167.974 28.7363 167.974 24.76L167.974 22.3077C167.974 17.9811 169.814 17.3505 172.67 17.3505C173.873 17.3505 176.606 17.4906 177.738 17.5869V15.0908C175.884 14.6948 173.992 14.4981 172.096 14.504C168.461 14.504 164.693 15.6689 164.693 22.3077L164.693 24.76C164.693 31.0484 168.019 32.5899 172.034 32.5899C173.957 32.5951 175.876 32.4161 177.764 32.0556L177.764 22.9646L173.281 22.9646Z" fill="black"/>
</svg>
