<?xml version="1.0" encoding="utf-8"?>
<!-- Generator: Adobe Illustrator 27.0.1, SVG Export Plug-In . SVG Version: 6.00 Build 0)  -->
<svg version="1.1" id="Layer_1" xmlns="http://www.w3.org/2000/svg" xmlns:xlink="http://www.w3.org/1999/xlink" x="0px" y="0px"
	 viewBox="0 0 1158.2715 200" style="enable-background:new 0 0 1158.2715 200;" xml:space="preserve">
<style type="text/css">
	.st0{fill:#4370A0;}
	.st1{fill-rule:evenodd;clip-rule:evenodd;fill:#4EC4CD;}
	.st2{display:none;}
	.st3{display:inline;fill:none;stroke:#FF00FF;stroke-width:2;stroke-miterlimit:10;}
	.st4{display:inline;}
	.st5{fill:#FF00FF;}
</style>
<g>
	<g>
		<g>
			<path class="st0" d="M320.205,95.0766c-5.1998-3.0777-10.6012-5.5718-16.2078-7.4887
				c-3.4202-1.2313-6.8727-2.6317-10.3605-4.2061c-3.4877-1.5705-5.1642-3.3845-5.0266-5.4366c0-2.3241,1.0932-4.3406,3.2825-6.0518
				c2.1865-1.7088,4.9914-2.5645,8.4116-2.5645c4.6481,0,9.0271,0.6152,13.1305,1.8465c4.1029,1.2304,8.5459,2.8721,13.3353,4.9234
				l8.0012-17.8487c-3.2826-2.3241-7.0459-4.2377-11.2837-5.7442c-4.241-1.5033-8.3795-2.6673-12.4121-3.4881
				c-4.0361-0.8201-7.4886-1.2305-10.3608-1.2305c-12.0373,0-21.5417,2.6665-28.5171,8.0012
				c-6.9755,5.3337-10.4633,12.7901-10.4633,22.3625c0,5.4714,1.7085,10.1909,5.129,14.1558
				c3.4173,3.9689,7.6935,7.3187,12.8225,10.0532c5.129,2.7377,10.2228,4.9938,15.2841,6.7699
				c3.8278,0.9584,7.0431,2.0869,9.6429,3.3853c2.5965,1.3017,4.5453,2.7693,5.847,4.411c1.298,1.6408,1.9488,3.4201,1.9488,5.3338
				c0,1.9169-0.9232,3.4881-2.7697,4.7186c-1.8464,1.2313-4.0005,2.1897-6.4622,2.8729c-2.4621,0.6857-4.8566,1.0256-7.1807,1.0256
				c-2.5997,0-5.267-0.2728-8.0011-0.8208c-2.7377-0.5448-5.6099-1.3657-8.6167-2.4617c-3.0102-1.0937-6.1551-2.1865-9.4376-3.2826
				l-7.7959,17.8487c3.1446,2.3274,6.8023,4.2766,10.976,5.847c4.1706,1.5737,8.4116,2.6989,12.7198,3.3853
				c4.3085,0.6825,7.8282,1.0257,10.566,1.0257c13.5405,0,23.8305-2.6988,30.8764-8.1039
				c7.0427-5.4011,10.5656-13.0273,10.5656-22.8749c0-6.017-1.6413-11.1461-4.9239-15.387
				C329.6422,101.8141,325.4012,98.1536,320.205,95.0766z"/>
		</g>
		<g>
			<path class="st0" d="M427.325,59.3064c-0.7809-0.6719-1.6067-1.3326-2.4892-1.9793c-3.8306-2.8017-8.0363-5.0942-12.6172-6.8735
				c-4.5842-1.7752-8.9952-2.6665-13.2329-2.6665c-10.6684,0-19.798,2.2245-27.3887,6.6671
				c-7.5912,4.4466-13.4062,10.6013-17.4387,18.4648c-4.0358,7.8667-6.0523,17.0634-6.0523,27.5943
				c0,10.5332,1.9812,19.6628,5.9498,27.3887c3.9653,7.7291,9.7448,13.7453,17.3359,18.0543
				c7.5907,4.3082,16.4447,6.4623,26.5683,6.4623c4.9238,0,9.4695-0.7536,13.6429-2.2569c3.0329-1.0932,5.9387-2.5542,8.7195-4.3719
				v49.097l26.6703-8.8528l0.0004-135.5803h-13.951L427.325,59.3064z M412.4239,126.3631
				c-4.1738,2.1897-8.5847,3.2826-13.233,3.2826c-4.789,0-8.9596-1.2629-12.5149-3.7949
				c-3.5582-2.5297-6.2926-5.9822-8.2063-10.3609c-1.9169-4.3762-2.8722-9.3667-2.8722-14.9765
				c0-5.8794,0.888-11.0433,2.6669-15.4899c1.7761-4.4433,4.4785-7.9663,8.104-10.5656c3.6225-2.5969,7.8987-3.8985,12.8224-3.8985
				c4.6483,0,9.0591,0.9941,13.233,2.9749c2.5197,1.1991,5.1536,3.0197,7.8987,5.4407v42.293
				C417.5775,123.3392,414.9436,125.0422,412.4239,126.3631z"/>
		</g>
		<g>
			<path class="st0" d="M841.4055,74.4577c3.8978-2.5969,8.3768-3.8985,13.4377-3.8985c4.6482,0,9.0276,0.5836,13.131,1.7445
				c4.1025,1.1632,8.5458,2.8398,13.3349,5.0262l7.5907-19.08c-3.2825-2.3241-7.0775-4.2377-11.3856-5.7442
				c-4.309-1.5033-8.55-2.6673-12.7205-3.4881c-4.1738-0.8201-7.6935-1.2305-10.5656-1.2305
				c-10.5333,0-19.7657,2.1541-27.6964,6.4623c-7.9338,4.3082-14.0893,10.3956-18.4647,18.2592
				c-4.3787,7.8667-6.5651,17.1307-6.5651,27.7991c0,10.534,2.1865,19.7308,6.5651,27.5943
				c4.3754,7.8667,10.4952,13.9186,18.3619,18.1563c7.8636,4.2386,17.1979,6.3602,28.0048,6.3602
				c2.8721,0,6.3595-0.3432,10.4629-1.0257c4.1033-0.6864,8.3759-1.8116,12.8224-3.3853c4.4434-1.5704,8.1711-3.5196,11.1808-5.847
				l-7.5907-19.2847c-4.7891,2.1889-9.3028,3.8654-13.5405,5.0262c-4.241,1.1632-8.5492,1.7437-12.9254,1.7437
				c-4.9233,0-9.37-1.2629-13.335-3.7949c-3.969-2.5297-7.0459-5.9822-9.2324-10.3609c-2.1897-4.3762-3.2825-9.4371-3.2825-15.1822
				c0.1343-5.7442,1.2628-10.8376,3.3854-15.2842C834.4973,80.5801,837.5078,77.0571,841.4055,74.4577z"/>
		</g>
		<g>
			<path class="st0" d="M1060.4108,95.0766c-5.1995-3.0777-10.6013-5.5718-16.208-7.4887
				c-3.4202-1.2313-6.8726-2.6317-10.3607-4.2061c-3.4873-1.5705-5.1638-3.3845-5.0262-5.4366c0-2.3241,1.0929-4.3406,3.2826-6.0518
				c2.1864-1.7088,4.9913-2.5645,8.4115-2.5645c4.6482,0,9.0276,0.6152,13.1301,1.8465c4.1034,1.2304,8.5468,2.8721,13.3358,4.9234
				l8.001-17.8487c-3.2825-2.3241-7.0459-4.2377-11.2836-5.7442c-4.241-1.5033-8.38-2.6673-12.4121-3.4881
				c-4.0363-0.8201-7.4888-1.2305-10.3608-1.2305c-12.0372,0-21.5416,2.6665-28.5171,8.0012
				c-6.9755,5.3337-10.4636,12.7901-10.4636,22.3625c0,5.4714,1.7089,10.1909,5.129,14.1558
				c3.4176,3.9689,7.6935,7.3187,12.8224,10.0532c5.129,2.7377,10.2233,4.9938,15.2852,6.7699
				c3.8273,0.9584,7.0426,2.0869,9.6418,3.3853c2.5969,1.3017,4.5463,2.7693,5.847,4.411c1.2985,1.6408,1.9493,3.4201,1.9493,5.3338
				c0,1.9169-0.9229,3.4881-2.7693,4.7186c-1.8466,1.2313-4.0006,2.1897-6.4631,2.8729c-2.4617,0.6857-4.8562,1.0256-7.1802,1.0256
				c-2.6001,0-5.2666-0.2728-8.0012-0.8208c-2.7377-0.5448-5.6097-1.3657-8.6172-2.4617c-3.0096-1.0937-6.1545-2.1865-9.4371-3.2826
				l-7.7963,17.8487c3.1449,2.3274,6.8021,4.2766,10.976,5.847c4.1705,1.5737,8.4116,2.6989,12.7206,3.3853
				c4.3082,0.6825,7.8279,1.0257,10.5657,1.0257c13.5405,0,23.8301-2.6988,30.8768-8.1039
				c7.0426-5.4011,10.5656-13.0273,10.5656-22.8749c0-6.017-1.6417-11.1461-4.9242-15.387
				C1069.8479,101.8141,1065.6069,98.1536,1060.4108,95.0766z"/>
		</g>
		<g>
			<path class="st0" d="M1150.4751,128.62c-1.9169,0.8208-3.7633,1.4361-5.5394,1.8465c-1.7784,0.4104-3.5577,0.6152-5.3339,0.6152
				c-4.7889,0-8.4115-1.6409-10.8732-4.9234c-2.4625-3.2826-3.6929-7.5203-3.6929-12.7206V70.5592h18.0535V50.4536h-18.0535V5.1134
				l-26.4659,8.8528v36.4874h-13.3358l-0.2047,20.1056h13.5405v45.9401c0,7.6611,1.6417,14.1558,4.9242,19.4896
				c3.2825,5.3347,7.8279,9.4056,13.6426,12.2073c5.8123,2.8017,12.8896,4.2062,21.234,4.2062c2.0521,0,4.3406-0.3084,6.8735-0.9237
				c2.5289-0.6151,4.9558-1.3688,7.2831-2.2569c2.3241-0.8913,4.2377-1.878,5.7443-2.9749L1150.4751,128.62z"/>
		</g>
		<g>
			<path class="st0" d="M564.3435,144.8679V50.4535h-26.4658v68.9339c-2.4618,1.6417-5.0619,3.353-7.7963,5.129
				c-2.7378,1.7793-5.7443,3.2826-9.0269,4.5139c-3.2825,1.2312-6.6354,1.8464-10.0532,1.8464
				c-4.3786,0-7.8663-1.6417-10.4628-4.9242c-2.5997-3.2826-3.8981-8.0683-3.8981-14.3614l-0.0013-61.1377h-26.6707l0.0013,62.3689
				c0,7.662,0.9551,13.7057,2.8721,19.7899c1.9136,6.0875,5.3342,10.9089,10.258,14.4634
				c4.9238,3.5553,11.8993,5.3346,20.9265,5.3346c3.5549,0,7.4883-0.5836,11.7965-1.7437
				c4.3082-1.1641,8.7515-2.7345,13.3358-4.7193c4.5801-1.9809,9.0591-3.6493,13.4377-6.659l6.4542,10.6684L564.3435,144.8679z"/>
		</g>
		<g>
			<path class="st0" d="M662.8179,65.533c-3.969-5.5394-9.2324-9.88-15.7975-13.0273c-6.5651-3.145-13.8165-4.7186-21.7473-4.7186
				c-2.7377,0-6.4623,0.4104-11.1808,1.2305c-4.7194,0.8208-9.3352,1.8821-13.8489,3.1805
				c-4.5131,1.3008-8.0715,2.8397-10.6685,4.6157l7.181,22.1577c3.693-1.6417,8.274-3.1449,13.7454-4.5138
				c5.4689-1.3657,10.5308-2.0521,15.1822-2.0521c4.9235,0,8.7864,1.4044,11.5913,4.2062
				c2.8017,2.8049,4.2734,6.6679,4.4109,11.5913v0.2057h-19.4904c-11.2164,0.1376-20.3104,2.9069-27.2859,8.3087
				c-6.9755,5.405-10.4636,13.233-10.4636,23.491c0,9.5748,2.94,17.3362,8.8219,23.2853
				c5.8794,5.9498,14.9062,8.9248,27.0811,8.9248c5.0586,0,9.7772-1.2313,14.1566-3.693c4.3753-2.4617,8.4114-5.6066,12.1044-9.4371
				l6.6785,10.6684l15.4784-5.1198V84.5102C668.7669,77.4003,666.783,71.0724,662.8179,65.533z M641.8914,121.4396
				c-3.4209,3.2826-7.0459,5.7442-10.874,7.3851c-3.8306,1.6417-7.5907,2.4625-11.2837,2.4625
				c-2.3273,0-4.4109-0.5448-6.2574-1.6417c-1.8465-1.0928-3.353-2.4617-4.513-4.1034c-1.1641-1.6408-1.7445-3.4168-1.7445-5.3337
				c0-3.5554,1.2637-6.7707,3.7958-9.6428c2.5289-2.8722,6.1198-4.3082,10.7713-4.3082h20.1055L641.8914,121.4396L641.8914,121.4396
				z"/>
		</g>
		<g>
			<path class="st0" d="M783.0396,5.1133l-26.6707,8.8528v40.3983c-2.5568-1.5009-5.2575-2.8053-8.1039-3.9108
				c-4.5842-1.7752-8.9952-2.6665-13.233-2.6665c-10.6684,0-19.7979,2.2245-27.3887,6.6671
				c-7.5907,4.4465-13.4061,10.6012-17.4391,18.4647c-4.0353,7.8668-6.0518,17.0635-6.0518,27.5943
				c0,10.5332,1.9808,19.6628,5.9498,27.3887c3.9649,7.7291,9.7448,13.7454,17.3355,18.0544
				c7.5915,4.3082,16.4451,6.4623,26.5686,6.4623c4.9234,0,9.4696-0.7537,13.6434-2.2569c4.1706-1.5032,8.1039-3.6929,11.7961-6.565
				c1.1614-0.9033,2.2767-1.8618,3.3704-2.8462l9.87,9.2065l10.3534-5.0925L783.0396,5.1133L783.0396,5.1133z M756.369,121.2679
				c-2.7452,2.0712-5.3794,3.7742-7.8991,5.0952c-4.173,2.1897-8.584,3.2825-13.2322,3.2825c-4.7898,0-8.9604-1.2628-12.5149-3.7949
				c-3.5585-2.5296-6.2931-5.9822-8.2068-10.3608c-1.9169-4.3762-2.8721-9.3667-2.8721-14.9766
				c0-5.8794,0.8881-11.0433,2.6674-15.4898c1.7761-4.4434,4.4781-7.9664,8.1039-10.5656
				c3.6218-2.5969,7.8984-3.8985,12.8225-3.8985c4.6482,0,9.0591,0.9941,13.2322,2.9749c2.5197,1.1992,5.1539,3.0198,7.8991,5.4408
				L756.369,121.2679L756.369,121.2679z"/>
		</g>
		<g>
			<path class="st0" d="M986.3494,84.5101c0-7.1098-1.9841-13.4377-5.9491-18.9771c-3.969-5.5394-9.2323-9.88-15.7974-13.0273
				c-6.5651-3.145-13.8167-4.7186-21.7473-4.7186c-2.7378,0-6.4623,0.4104-11.1808,1.2305
				c-4.7195,0.8208-9.3353,1.8821-13.8491,3.1805c-4.5129,1.3008-8.0715,2.8397-10.6684,4.6157l7.1811,22.1577
				c3.6929-1.6417,8.2739-3.1449,13.7454-4.5138c5.469-1.3657,10.5309-2.0521,15.1823-2.0521c4.9233,0,8.7864,1.4044,11.5913,4.2062
				c2.8016,2.8049,4.2733,6.6679,4.4109,11.5913v0.2057h-19.4904c-11.2164,0.1376-20.3104,2.9069-27.2858,8.3087
				c-6.9755,5.405-10.4637,13.233-10.4637,23.491c0,9.5748,2.9401,17.3362,8.822,23.2853
				c5.8795,5.9498,14.9062,8.9248,27.0811,8.9248c5.0585,0,9.7771-1.2313,14.1565-3.693c4.3755-2.4617,8.4116-5.6066,12.1046-9.4371
				l6.6848,10.6684l15.4786-5.1378L986.3494,84.5101z M959.4739,121.4396c-3.421,3.2826-7.0459,5.7442-10.8741,7.3851
				c-3.8306,1.6417-7.5906,2.4625-11.2836,2.4625c-2.3274,0-4.411-0.5448-6.2574-1.6417c-1.8464-1.0928-3.3529-2.4617-4.5129-4.1034
				c-1.1641-1.6408-1.7445-3.4168-1.7445-5.3337c0-3.5554,1.2637-6.7707,3.7958-9.6428c2.5288-2.8722,6.1198-4.3082,10.7712-4.3082
				h20.1056L959.4739,121.4396L959.4739,121.4396z"/>
		</g>
	</g>
	<g id="Group-Copy_00000168090344502285928530000009555075667631237551_">
		<path id="Combined-Shape-Copy-6_00000078015490601624404380000006267871455039932844_" class="st1" d="M124.3034,2.14
			c3.478,0.5879,7.201,1.3716,11.2178,2.4983c26.0607,7.201,52.6111,31.792,30.4694,26.8934
			c-33.7515-10.2381-55.7952,10.0422-66.7681,33.8984c-0.2939,0.6369-0.5879,1.2737-0.8817,1.9105
			c-13.0794,36.2007-19.6435,98.2172-65.3966,89.0568C-13.3477,141.6526-2.1299,74.1007,14.1825,48.7748
			c17.586-27.1873,37.8173-42.226,68.1887-47.0757C99.1736-0.9951,113.0855-0.2114,124.3034,2.14L124.3034,2.14z"/>
		<path id="Combined-Shape-Copy-7_00000170966262907656149700000002729765805594696882_" class="st1" d="M87.074,197.8398
			c-3.478-0.5879-7.201-1.3716-11.2178-2.4983c-26.0607-7.201-52.6111-31.7921-30.4694-26.8934
			c33.7515,10.2381,55.7952-10.0422,66.7681-33.8985c0.2939-0.6368,0.5879-1.2737,0.8817-1.9104
			c13.0794-36.2008,19.6435-98.2173,65.3965-89.0569c46.292,14.7449,35.0741,82.2968,18.7617,107.6226
			c-17.586,27.1873-37.8173,42.226-68.1887,47.0757C112.1549,201.0239,98.2429,200.191,87.074,197.8398L87.074,197.8398z"/>
	</g>
</g>
<g id="Guide" class="st2">
	<line class="st3" x1="1347.6359" y1="-300" x2="1347.6359" y2="500"/>
	<line class="st3" x1="1146.4579" y1="-300" x2="1146.4579" y2="500"/>
	<line class="st3" x1="11.2247" y1="-300" x2="11.2247" y2="500"/>
	<line class="st3" x1="1447.6357" y1="-199.9996" x2="-289.3643" y2="-199.9996"/>
	<line class="st3" x1="1447.6357" y1="0" x2="-289.3643" y2="0"/>
	<line class="st3" x1="1447.6357" y1="199.9996" x2="-289.3643" y2="199.9996"/>
	<line class="st3" x1="1447.6357" y1="399.9993" x2="-289.3643" y2="399.9993"/>
	<line class="st3" x1="-189.9534" y1="-300" x2="-189.9534" y2="500"/>
	<g class="st4">
		<path class="st5" d="M1223.59,120.5261l18.0668-23.5254l-0.1533,5.1521l-17.2206-22.6792h10.6859l12.0699,16.1445h-4.0743
			l12.1466-16.1445h10.3777l-17.3738,22.6792l0.0767-5.1521l17.99,23.5254h-10.8406l-12.6848-17.1439l3.9978,0.5381
			l-12.4547,16.6059L1223.59,120.5261L1223.59,120.5261z"/>
	</g>
	<g class="st4">
		<path class="st5" d="M1223.59,320.5257l18.0668-23.5254l-0.1533,5.1521l-17.2206-22.6792h10.6859l12.0699,16.1445h-4.0743
			l12.1466-16.1445h10.3777l-17.3738,22.6792l0.0767-5.1521l17.99,23.5254h-10.8406l-12.6848-17.1439l3.9978,0.538l-12.4547,16.6059
			H1223.59z"/>
	</g>
	<g class="st4">
		<path class="st5" d="M1223.59-79.4735l18.0668-23.5254l-0.1533,5.1521l-17.2206-22.6792h10.6859l12.0699,16.1445h-4.0743
			l12.1466-16.1445h10.3777l-17.3738,22.6792l0.0767-5.1521l17.99,23.5254h-10.8406l-12.6848-17.1439l3.9978,0.538l-12.4547,16.6059
			C1234.1992-79.4735,1223.59-79.4735,1223.59-79.4735z"/>
	</g>
	<g class="st4">
		<path class="st5" d="M-108.2045,120.5261l18.0667-23.5254l-0.1533,5.1521l-17.2206-22.6792h10.6859l12.07,16.1445h-4.0744
			l12.1467-16.1445h10.3777l-17.3739,22.6792l0.0766-5.1521l17.9901,23.5254h-10.8406l-12.6847-17.1439l3.9978,0.5381
			l-12.4548,16.6058C-97.5953,120.5261-108.2045,120.5261-108.2045,120.5261z"/>
	</g>
	<g class="st4">
		<path class="st5" d="M-108.2045,320.5257l18.0667-23.5254l-0.1533,5.1521l-17.2206-22.6792h10.6859l12.07,16.1445h-4.0744
			l12.1467-16.1445h10.3777l-17.3739,22.6792l0.0766-5.1521l17.9901,23.5254h-10.8406l-12.6847-17.1439l3.9978,0.538
			l-12.4548,16.6059H-108.2045z"/>
	</g>
	<g class="st4">
		<path class="st5" d="M-108.2045-79.4735l18.0667-23.5254l-0.1533,5.1521l-17.2205-22.6793h10.6858l12.07,16.1445h-4.0744
			l12.1467-16.1445h10.3777l-17.3739,22.6793l0.0766-5.1521l17.9901,23.5254h-10.8406l-12.6847-17.144l3.9978,0.538l-12.4548,16.606
			C-97.5953-79.4735-108.2045-79.4735-108.2045-79.4735z"/>
	</g>
	<g class="st4">
		<path class="st5" d="M517.5051-82.7185c-2.3682,0-4.6797-0.3447-6.9365-1.0322c-2.2559-0.6885-4.1514-1.6396-5.6875-2.8564
			l2.6396-4.8477c1.2158,0.9922,2.6963,1.792,4.4404,2.3994c1.7432,0.6084,3.5595,0.9121,5.4482,0.9121
			c2.208,0,3.9434-0.4629,5.208-1.3916c1.2637-0.9277,1.8955-2.1758,1.8955-3.7441c0-1.0557-0.2637-1.9834-0.792-2.7842
			c-0.5283-0.7988-1.4561-1.4072-2.7842-1.8242c-1.3281-0.415-3.1436-0.623-5.4473-0.623h-8.1123l1.7275-18.2881h19.7285v5.2314
			h-17.4238l3.2636-2.9756l-1.2959,13.6797l-3.2636-2.9277h6.7675c3.3281,0,6.0078,0.4404,8.04,1.3193
			c2.0312,0.8809,3.5195,2.0967,4.4639,3.6484c0.9434,1.5527,1.416,3.3203,1.416,5.3037c0,1.9521-0.4795,3.7441-1.4404,5.376
			c-0.96,1.6328-2.4238,2.9453-4.3916,3.9365C523.0012-83.2146,520.5129-82.7185,517.5051-82.7185z"/>
		<path class="st5" d="M538.1458-82.8631c-1.0889,0-2.0166-0.376-2.7842-1.1279c-0.7686-0.752-1.1523-1.7041-1.1523-2.8564
			c0-1.2148,0.3838-2.1836,1.1523-2.9033c0.7676-0.7207,1.6953-1.0801,2.7842-1.0801c1.0869,0,2.0156,0.3594,2.7832,1.0801
			c0.7686,0.7197,1.1523,1.6885,1.1523,2.9033c0,1.1523-0.3838,2.1045-1.1523,2.8564
			C540.1613-83.239,539.2326-82.8631,538.1458-82.8631z"/>
		<path class="st5" d="M560.0818-82.7185c-3.041,0-5.6484-0.6484-7.8242-1.9443c-2.1768-1.2959-3.8403-3.1758-4.9927-5.6396
			c-1.1514-2.4639-1.7275-5.5039-1.7275-9.1201c0-3.8408,0.6953-7.0879,2.0879-9.7441c1.3921-2.6562,3.3276-4.6719,5.8081-6.0479
			c2.4795-1.376,5.3359-2.0645,8.5684-2.0645c1.6953,0,3.3193,0.1768,4.8721,0.5283c1.5518,0.3525,2.8711,0.8965,3.96,1.6318
			l-2.3047,4.7041c-0.9277-0.6074-1.9277-1.0322-3-1.2725c-1.0723-0.2393-2.2002-0.3594-3.3838-0.3594
			c-3.168,0-5.6807,0.9766-7.5361,2.9277c-1.8555,1.9521-2.7832,4.832-2.7832,8.6396c0,0.6084,0.0156,1.3203,0.0479,2.1367
			c0.0312,0.8154,0.1436,1.6396,0.3359,2.4717l-1.9199-2.1123c0.5762-1.3115,1.3682-2.4072,2.376-3.2881
			c1.0078-0.8799,2.208-1.543,3.5996-1.9922c1.3926-0.4473,2.9043-0.6719,4.5361-0.6719c2.208,0,4.1758,0.4248,5.9043,1.2725
			c1.7275,0.8477,3.1035,2.0479,4.1279,3.5996c1.0234,1.5527,1.5361,3.3682,1.5361,5.4482c0,2.208-0.5449,4.1279-1.6328,5.7598
			s-2.5596,2.8965-4.415,3.792C564.4655-83.1677,562.3856-82.7185,560.0818-82.7185z M559.7458-87.615
			c1.2793,0,2.415-0.2314,3.4072-0.6963c0.9922-0.4629,1.7686-1.1279,2.3281-1.9912c0.5596-0.8643,0.8408-1.8721,0.8408-3.0244
			c0-1.7598-0.6084-3.1514-1.8242-4.1758c-1.2168-1.0244-2.8486-1.5361-4.8965-1.5361c-1.3438,0-2.5195,0.248-3.5273,0.7441
			c-1.0088,0.4961-1.8086,1.1758-2.4004,2.04c-0.5928,0.8633-0.8877,1.8555-0.8877,2.9756c0,1.0244,0.2715,1.9678,0.8154,2.832
			s1.3359,1.5527,2.376,2.0645S558.2733-87.615,559.7458-87.615z"/>
		<path class="st5" d="M586.1931-82.7185c-2.3682,0-4.6797-0.3447-6.9355-1.0322c-2.2559-0.6885-4.1523-1.6396-5.6885-2.8564
			l2.6885-4.8477c1.2158,0.9922,2.6875,1.792,4.416,2.3994c1.7275,0.6084,3.5352,0.9121,5.4238,0.9121
			c2.2393,0,3.9834-0.4561,5.2314-1.3672c1.248-0.9121,1.8721-2.1523,1.8721-3.7207c0-1.5361-0.5762-2.752-1.7275-3.6475
			c-1.1523-0.8955-3.0088-1.3447-5.5684-1.3447h-3.0723v-4.2715l9.6006-11.4238l0.8154,2.3516h-18.0479v-5.2314h22.8965v4.1758
			l-9.6005,11.4237l-3.2637-1.9199h1.8721c4.1279,0,7.2236,0.9199,9.2881,2.7598c2.0635,1.8408,3.0957,4.2002,3.0957,7.0801
			c0,1.8887-0.4795,3.6328-1.4395,5.2324c-0.96,1.6006-2.4248,2.8877-4.3926,3.8633
			C591.6892-83.2068,589.2009-82.7185,586.1931-82.7185z"/>
		<path class="st5" d="M620.5603-101.1511c-1.0889,0-2.0166-0.376-2.7842-1.1279c-0.7686-0.751-1.1523-1.7041-1.1523-2.8555
			c0-1.2158,0.3838-2.1846,1.1523-2.9043c0.7676-0.7197,1.6953-1.0801,2.7842-1.0801c1.0869,0,2.0156,0.3604,2.7832,1.0801
			c0.7686,0.7197,1.1523,1.6885,1.1523,2.9043c0,1.1514-0.3838,2.1045-1.1523,2.8555
			C622.5759-101.5271,621.6472-101.1511,620.5603-101.1511z M620.5603-82.8631c-1.0889,0-2.0166-0.376-2.7842-1.1279
			c-0.7686-0.752-1.1523-1.7041-1.1523-2.8564c0-1.2148,0.3838-2.1836,1.1523-2.9033c0.7676-0.7207,1.6953-1.0801,2.7842-1.0801
			c1.0869,0,2.0156,0.3594,2.7832,1.0801c0.7686,0.7197,1.1523,1.6885,1.1523,2.9033c0,1.1523-0.3838,2.1045-1.1523,2.8564
			C622.5759-83.239,621.6472-82.8631,620.5603-82.8631z"/>
		<path class="st5" d="M647.1511-83.199v-31.2002l2.7354,2.832h-9.8398v-5.2314h13.3438v33.5996H647.1511z"/>
	</g>
	<g class="st4">
		<path class="st5" d="M-125.8123-231.1455l14.1597-19.4883v4.7041l-13.4878-18.8154h7.0562l10.0317,13.9199l-2.8799,0.0479
			l9.936-13.9678h6.7681l-13.3921,18.4795v-4.5117l14.2559,19.6318h-7.1997l-10.5601-14.7842h2.832l-10.416,14.7842H-125.8123z"/>
		<path class="st5" d="M-93.7005-226.3456l15.8398-45.2158h5.376l-15.8398,45.2158H-93.7005z"/>
		<path class="st5" d="M-72.7732-231.1455v-4.1758l13.3438-12.6719c1.1196-1.0566,1.9517-1.9844,2.4961-2.7842
			c0.5439-0.7998,0.9038-1.5439,1.0801-2.2324c0.1753-0.6875,0.2637-1.3359,0.2637-1.9434c0-1.5361-0.5278-2.7285-1.584-3.5762
			c-1.0557-0.8477-2.6084-1.2725-4.6558-1.2725c-1.6318,0-3.1123,0.2881-4.4399,0.8643c-1.3281,0.5762-2.4722,1.4561-3.4321,2.6396
			l-4.3682-3.3594c1.312-1.7598,3.0796-3.1279,5.3042-4.1045c2.2236-0.9756,4.7114-1.4639,7.4639-1.4639
			c2.4316,0,4.5518,0.3926,6.3604,1.1758c1.8071,0.7852,3.1992,1.8965,4.1758,3.3359c0.9756,1.4404,1.4639,3.1523,1.4639,5.1367
			c0,1.0879-0.144,2.168-0.4316,3.2393c-0.2881,1.0732-0.8325,2.2012-1.6323,3.3848c-0.8003,1.1836-1.9678,2.5117-3.5039,3.9834
			l-11.4722,10.8965l-1.2959-2.3525h19.632v5.2803L-72.7732-231.1455L-72.7732-231.1455z"/>
	</g>
	<g class="st4">
		<path class="st5" d="M1205.9822-231.1455l14.1597-19.4883v4.7041l-13.4878-18.8154h7.0562l10.0317,13.9199l-2.8799,0.0479
			l9.936-13.9678h6.7681l-13.3921,18.4795v-4.5117l14.2559,19.6318h-7.1997l-10.5601-14.7842h2.832l-10.416,14.7842H1205.9822z"/>
		<path class="st5" d="M1238.094-226.3456l15.8398-45.2158h5.376l-15.8398,45.2158H1238.094z"/>
		<path class="st5" d="M1259.0212-231.1455v-4.1758l13.3438-12.6719c1.1196-1.0566,1.9517-1.9844,2.4961-2.7842
			c0.5439-0.7998,0.9038-1.5439,1.0801-2.2324c0.1753-0.6875,0.2637-1.3359,0.2637-1.9434c0-1.5361-0.5278-2.7285-1.584-3.5762
			c-1.0557-0.8477-2.6084-1.2725-4.6558-1.2725c-1.6318,0-3.1123,0.2881-4.4399,0.8643c-1.3281,0.5762-2.4722,1.4561-3.4321,2.6396
			l-4.3682-3.3594c1.312-1.7598,3.0796-3.1279,5.3042-4.1045c2.2236-0.9756,4.7114-1.4639,7.4639-1.4639
			c2.4316,0,4.5518,0.3926,6.3604,1.1758c1.8071,0.7852,3.1992,1.8965,4.1758,3.3359c0.9756,1.4404,1.4639,3.1523,1.4639,5.1367
			c0,1.0879-0.144,2.168-0.4316,3.2393c-0.2881,1.0732-0.8325,2.2012-1.6323,3.3848c-0.8003,1.1836-1.9678,2.5117-3.5039,3.9834
			l-11.4722,10.8965l-1.2959-2.3525h19.6323v5.2803L1259.0212-231.1455L1259.0212-231.1455z"/>
	</g>
	<g class="st4">
		<path class="st5" d="M-125.8123,471.853l14.1597-19.4883v4.7041l-13.4878-18.8154h7.0562l10.0317,13.9199l-2.8799,0.0479
			l9.936-13.9678h6.7681l-13.3921,18.4795v-4.5117l14.2559,19.6318h-7.1997l-10.5601-14.7842h2.832l-10.416,14.7842H-125.8123z"/>
		<path class="st5" d="M-93.7005,476.6528l15.8398-45.2158h5.376l-15.8398,45.2158H-93.7005z"/>
		<path class="st5" d="M-72.7732,471.853v-4.1758l13.3438-12.6719c1.1196-1.0566,1.9517-1.9844,2.4961-2.7842
			c0.5439-0.7998,0.9038-1.5439,1.0801-2.2324c0.1753-0.6875,0.2637-1.3359,0.2637-1.9434c0-1.5361-0.5278-2.7285-1.584-3.5762
			c-1.0557-0.8477-2.6084-1.2725-4.6558-1.2725c-1.6318,0-3.1123,0.2881-4.4399,0.8643c-1.3281,0.5762-2.4722,1.4561-3.4321,2.6396
			l-4.3682-3.3594c1.312-1.7598,3.0796-3.1279,5.3042-4.1045c2.2236-0.9756,4.7114-1.4639,7.4639-1.4639
			c2.4316,0,4.5518,0.3926,6.3604,1.1758c1.8071,0.7852,3.1992,1.8965,4.1758,3.3359c0.9756,1.4404,1.4639,3.1523,1.4639,5.1367
			c0,1.0879-0.144,2.168-0.4316,3.2393c-0.2881,1.0732-0.8325,2.2012-1.6323,3.3848c-0.8003,1.1836-1.9678,2.5117-3.5039,3.9834
			l-11.4722,10.8965l-1.2959-2.3525h19.632v5.2803L-72.7732,471.853L-72.7732,471.853z"/>
	</g>
	<g class="st4">
		<path class="st5" d="M1205.9822,471.853l14.1597-19.4883v4.7041l-13.4878-18.8154h7.0562l10.0317,13.9199l-2.8799,0.0479
			l9.936-13.9678h6.7681l-13.3921,18.4795v-4.5117l14.2559,19.6318h-7.1997l-10.5601-14.7842h2.832l-10.416,14.7842H1205.9822z"/>
		<path class="st5" d="M1238.094,476.6528l15.8398-45.2158h5.376l-15.8398,45.2158H1238.094z"/>
		<path class="st5" d="M1259.0212,471.853v-4.1758l13.3438-12.6719c1.1196-1.0566,1.9517-1.9844,2.4961-2.7842
			c0.5439-0.7998,0.9038-1.5439,1.0801-2.2324c0.1753-0.6875,0.2637-1.3359,0.2637-1.9434c0-1.5361-0.5278-2.7285-1.584-3.5762
			c-1.0557-0.8477-2.6084-1.2725-4.6558-1.2725c-1.6318,0-3.1123,0.2881-4.4399,0.8643c-1.3281,0.5762-2.4722,1.4561-3.4321,2.6396
			l-4.3682-3.3594c1.312-1.7598,3.0796-3.1279,5.3042-4.1045c2.2236-0.9756,4.7114-1.4639,7.4639-1.4639
			c2.4316,0,4.5518,0.3926,6.3604,1.1758c1.8071,0.7852,3.1992,1.8965,4.1758,3.3359c0.9756,1.4404,1.4639,3.1523,1.4639,5.1367
			c0,1.0879-0.144,2.168-0.4316,3.2393c-0.2881,1.0732-0.8325,2.2012-1.6323,3.3848c-0.8003,1.1836-1.9678,2.5117-3.5039,3.9834
			l-11.4722,10.8965l-1.2959-2.3525h19.6323v5.2803L1259.0212,471.853L1259.0212,471.853z"/>
	</g>
</g>
</svg>
