<?xml version="1.0" encoding="UTF-8" standalone="no"?>
<!-- Created with Inkscape (http://www.inkscape.org/) -->

<svg
   sodipodi:docname="svn-name-banner2.svg"
   inkscape:version="1.1 (c68e22c387, 2021-05-23)"
   sodipodi:version="0.32"
   version="1.0"
   x="0.00000000"
   y="0.00000000"
   width="517.677"
   height="107.964"
   viewBox="0 0 517.677 107.964"
   id="svg2"
   xml:space="preserve"
   inkscape:export-filename="D:\Dev\subversion_site\publish\images\svn-name-banner2.png"
   inkscape:export-xdpi="96"
   inkscape:export-ydpi="96"
   xmlns:inkscape="http://www.inkscape.org/namespaces/inkscape"
   xmlns:sodipodi="http://sodipodi.sourceforge.net/DTD/sodipodi-0.dtd"
   xmlns="http://www.w3.org/2000/svg"
   xmlns:svg="http://www.w3.org/2000/svg"
   xmlns:rdf="http://www.w3.org/1999/02/22-rdf-syntax-ns#"
   xmlns:cc="http://creativecommons.org/ns#"
   xmlns:dc="http://purl.org/dc/elements/1.1/"><metadata
   id="metadata24"><rdf:RDF><cc:Work
       rdf:about=""><dc:format>image/svg+xml</dc:format><dc:type
         rdf:resource="http://purl.org/dc/dcmitype/StillImage" /></cc:Work></rdf:RDF></metadata><sodipodi:namedview
   inkscape:current-layer="Layer_1"
   inkscape:window-y="-8"
   inkscape:window-x="100"
   inkscape:cy="43.717075"
   inkscape:cx="76.309017"
   inkscape:zoom="3.1909728"
   id="base"
   pagecolor="#ffffff"
   bordercolor="#666666"
   borderopacity="1.0"
   inkscape:pageopacity="0.0"
   inkscape:pageshadow="2"
   inkscape:window-width="1812"
   inkscape:window-height="1057"
   inkscape:pagecheckerboard="0"
   showgrid="false"
   inkscape:window-maximized="1"
   width="157.009px" />
   <defs
   id="defs84">

		</defs>

		<g
   id="g46">
				<g
   id="Layer_1">
					<path
   d="M 107.96298,0 H -2.110322e-5 V 107.964 H 107.96398 V 0 Z"
   style="fill:#809cc9;stroke-width:1.1708"
   id="path49" />
					<g
   id="g51"
   transform="translate(-21.475021,13.125)">
						<path
   d="m 130.372,0 1.662,6.583 c -15.285,2.216 -28.886,4.828 -40.802,7.837 -12.857,3.247 -23.198,6.546 -31.025,9.896 -7.844,3.284 -11.507,5.952 -10.99,8 0.456,1.807 3.735,2.626 9.863,2.453 3.141,-0.058 8.252,-0.399 15.335,-1.028 7.083,-0.626 16.221,-1.536 27.415,-2.726 20.599,-2.144 34.762,-3.077 42.491,-2.8 7.711,0.21 11.944,1.784 12.688,4.725 1.007,3.988 -6.304,9.331 -21.931,16.026 -15.657,6.633 -35.88,13.076 -60.652,19.332 -20.854,5.265 -38.833,9.029 -53.939,11.291 l -1.645,-6.51 c 17.868,-2.555 33.937,-5.633 48.205,-9.236 13.326,-3.364 23.594,-6.629 30.8,-9.799 7.205,-3.169 10.533,-5.84 9.983,-8.019 -0.477,-1.886 -3.805,-2.849 -9.973,-2.891 -3.159,0.034 -7.51,0.257 -13.062,0.668 -5.566,0.414 -12.479,1.056 -20.739,1.923 C 51.242,47.1 40.594,48.14 32.126,48.846 23.646,49.555 17.325,49.897 13.15,49.876 5.14,49.802 0.76,48.256 0,45.248 -1.024,41.187 5.74,36.053 20.295,29.845 35.002,23.577 54.925,17.269 80.09,10.915 97.494,6.521 114.254,2.883 130.372,0 Z"
   style="fill:#ffffff"
   id="path53" />
      			</g>
					<g
   id="g55"
   transform="translate(-21.475021,13.125)">
						<path
   d="m 26.125,56.078 c 0.279,0 0.521,0.105 0.728,0.316 0.205,0.205 0.309,0.451 0.309,0.736 0,0.297 -0.104,0.548 -0.309,0.754 -0.206,0.205 -0.454,0.308 -0.745,0.308 -0.297,0 -0.548,-0.103 -0.753,-0.309 -0.206,-0.211 -0.309,-0.462 -0.309,-0.753 0,-0.297 0.103,-0.545 0.309,-0.745 0.21,-0.204 0.467,-0.307 0.77,-0.307 z m 0,6.803 c 0.279,0 0.521,0.107 0.728,0.318 0.205,0.207 0.309,0.456 0.309,0.748 0,0.292 -0.104,0.541 -0.309,0.748 -0.217,0.201 -0.465,0.301 -0.745,0.301 -0.148,0 -0.287,-0.027 -0.415,-0.082 -0.128,-0.054 -0.241,-0.128 -0.338,-0.223 -0.098,-0.095 -0.173,-0.206 -0.228,-0.336 -0.055,-0.129 -0.081,-0.268 -0.081,-0.417 0,-0.292 0.103,-0.542 0.309,-0.748 0.21,-0.206 0.467,-0.309 0.77,-0.309 z"
   style="fill:#ffffff"
   id="path57" />
						<path
   d="m 29.779,56.078 c 0.28,0 0.522,0.105 0.728,0.316 0.206,0.205 0.309,0.451 0.309,0.736 0,0.297 -0.103,0.548 -0.309,0.754 -0.205,0.205 -0.453,0.308 -0.744,0.308 -0.297,0 -0.549,-0.103 -0.754,-0.309 C 28.803,57.672 28.7,57.421 28.7,57.13 c 0,-0.297 0.103,-0.545 0.309,-0.745 0.211,-0.204 0.468,-0.307 0.77,-0.307 z m 0,6.803 c 0.28,0 0.522,0.107 0.728,0.318 0.206,0.207 0.309,0.456 0.309,0.748 0,0.292 -0.103,0.541 -0.309,0.748 -0.217,0.201 -0.465,0.301 -0.744,0.301 -0.148,0 -0.287,-0.027 -0.416,-0.082 C 29.219,64.86 29.106,64.786 29.009,64.691 28.912,64.596 28.836,64.485 28.782,64.355 28.727,64.226 28.7,64.087 28.7,63.938 c 0,-0.292 0.103,-0.542 0.309,-0.748 0.211,-0.206 0.468,-0.309 0.77,-0.309 z"
   style="fill:#ffffff"
   id="path59" />
					</g>
					<path
   d="m 147.06643,61.87569 c 0,2.366478 -0.60672,4.492483 -1.82563,6.378014 -1.21892,1.885532 -3.00083,3.361165 -5.3512,4.432365 -2.3449,1.065734 -5.12709,1.601335 -8.33562,1.601335 -3.85898,0 -7.04018,-0.732352 -9.5436,-2.186123 -1.78191,-1.043873 -3.2304,-2.448458 -4.33999,-4.202822 -1.11506,-1.754364 -1.67259,-3.45954 -1.67259,-5.115528 0,-0.961894 0.33342,-1.78169 1.00574,-2.470319 0.66138,-0.683163 1.51408,-1.027478 2.54715,-1.027478 0.83629,0 1.5414,0.2678 2.12626,0.797935 0.58486,0.530135 1.07134,1.32807 1.48128,2.382874 0.49741,1.246091 1.03307,2.284499 1.61793,3.120691 0.57393,0.836192 1.38836,1.524821 2.4433,2.071352 1.044,0.54653 2.42689,0.814331 4.14321,0.814331 2.35037,0 4.258,-0.551997 5.72835,-1.645058 1.47035,-1.093062 2.20279,-2.464854 2.20279,-4.098981 0,-1.300743 -0.39355,-2.361013 -1.19158,-3.169879 -0.79257,-0.803399 -1.81471,-1.426445 -3.07189,-1.852739 -1.25717,-0.426294 -2.93523,-0.879914 -5.03963,-1.360861 -2.81498,-0.661303 -5.16535,-1.431911 -7.06751,-2.317291 -1.8967,-0.874449 -3.39984,-2.082282 -4.50944,-3.601638 -1.11506,-1.519355 -1.67259,-3.415817 -1.67259,-5.672989 0,-2.158797 0.58486,-4.071654 1.76005,-5.744038 1.17518,-1.677851 2.86964,-2.962198 5.09429,-3.863974 2.22466,-0.89631 4.8374,-1.344465 7.84915,-1.344465 2.3941,0 4.47117,0.300592 6.22575,0.890845 1.74912,0.595719 3.20853,1.393654 4.36186,2.377409 1.15878,0.994686 2.00054,2.02763 2.53621,3.115226 0.53567,1.082131 0.79803,2.147865 0.79803,3.175344 0,0.945497 -0.33342,1.792621 -0.9948,2.552298 -0.66685,0.759678 -1.49222,1.136784 -2.48703,1.136784 -0.90188,0 -1.5906,-0.229543 -2.0552,-0.683164 -0.47008,-0.45362 -0.97842,-1.196902 -1.52501,-2.229845 -0.71605,-1.481098 -1.56874,-2.628813 -2.56901,-3.45954 -1.00028,-0.830727 -2.60181,-1.240625 -4.81007,-1.240625 -2.04427,0 -3.70047,0.448156 -4.95218,1.344466 -1.25171,0.901776 -1.88576,1.983907 -1.88576,3.246393 0,0.787004 0.21317,1.464702 0.63952,2.033094 0.42635,0.568393 1.01667,1.054805 1.76005,1.470168 0.74337,0.415363 1.50314,0.732351 2.27384,0.961894 0.77071,0.235009 2.02788,0.568392 3.7934,1.016548 2.19732,0.519203 4.1924,1.087596 5.97431,1.71064 1.78191,0.623046 3.30145,1.377259 4.5477,2.268104 1.25171,0.890845 2.23012,2.016698 2.92976,3.37756 0.69965,1.360862 1.0604,3.038711 1.0604,5.011687 z"
   style="fill:#809cc9;stroke-width:5.46564"
   id="path61" />
					<path
   d="m 158.147,57.432395 v -18.82252 c 0,-1.601335 0.36076,-2.803703 1.08227,-3.601638 0.72151,-0.797935 1.67259,-1.202368 2.84777,-1.202368 1.23532,0 2.20826,0.398968 2.92977,1.202368 0.72151,0.803401 1.08226,2.005768 1.08226,3.612568 v 19.287072 c 0,2.191588 0.24597,4.022467 0.73244,5.4981 0.48648,1.475633 1.3501,2.617881 2.59635,3.426747 1.24077,0.808866 2.97896,1.218764 5.21454,1.218764 3.08281,0 5.26374,-0.825262 6.53731,-2.475784 1.27358,-1.650524 1.91856,-4.153634 1.91856,-7.503869 v -19.45103 c 0,-1.623196 0.35529,-2.836494 1.06587,-3.628964 0.71604,-0.79247 1.66712,-1.185972 2.85871,-1.185972 1.19158,0 2.16453,0.393502 2.90243,1.185972 0.73791,0.797935 1.1096,2.000303 1.1096,3.623499 v 18.844382 c 0,3.066037 -0.30063,5.618336 -0.89642,7.667826 -0.5958,2.049491 -1.72179,3.853042 -3.38345,5.40519 -1.42115,1.300743 -3.07188,2.251706 -4.95217,2.847425 -1.89123,0.595718 -4.08856,0.901776 -6.61384,0.901776 -3.00629,0 -5.58623,-0.333384 -7.75623,-0.97829 -2.16453,-0.650372 -3.94097,-1.655988 -5.30746,-3.016851 -1.3665,-1.360861 -2.37224,-3.104294 -3.01176,-5.235764 -0.63952,-2.12054 -0.95655,-4.661908 -0.95655,-7.618639 z"
   style="fill:#809cc9;stroke-width:5.46564"
   id="path63" />
					<path
   d="m 219.06108,73.598775 h -11.9705 c -1.72725,0 -2.96256,-0.388036 -3.70046,-1.16411 -0.74338,-0.776075 -1.1096,-2.005768 -1.1096,-3.694548 V 39.336761 c 0,-1.721572 0.37715,-2.962197 1.13693,-3.721875 0.7543,-0.759678 1.97868,-1.131319 3.67313,-1.131319 h 12.69748 c 1.86936,0 3.49276,0.114772 4.86472,0.33885 1.37196,0.224077 2.60181,0.672232 3.68954,1.322604 0.92375,0.551996 1.73818,1.251556 2.44876,2.093213 0.71057,0.841658 1.25171,1.776225 1.62886,2.798237 0.37168,1.027479 0.56299,2.104144 0.56299,3.240928 0,3.91316 -1.95135,6.771516 -5.86499,8.585999 5.13255,1.639591 7.70703,4.831331 7.70703,9.569753 0,2.191588 -0.563,4.17003 -1.68352,5.918929 -1.12053,1.754363 -2.62914,3.055107 -4.5313,3.891299 -1.19705,0.497343 -2.56901,0.841657 -4.12135,1.043874 -1.55234,0.213147 -3.36158,0.311522 -5.42772,0.311522 z m -8.84396,-33.21814 v 10.160006 h 7.26976 c 1.97322,0 3.50369,-0.191285 4.58049,-0.568391 1.0768,-0.377106 1.90216,-1.087597 2.47609,-2.147866 0.44274,-0.748748 0.66685,-1.590405 0.66685,-2.519507 0,-1.983907 -0.70511,-3.301046 -2.11533,-3.956883 -1.40476,-0.650372 -3.55289,-0.97829 -6.43893,-0.97829 h -6.43893 z m 8.2591,15.800204 h -8.2591 v 11.526334 h 8.52693 c 5.36213,0 8.04593,-1.951114 8.04593,-5.847879 0,-1.989372 -0.69418,-3.437678 -2.08254,-4.333989 -1.39383,-0.89631 -3.4709,-1.344466 -6.23122,-1.344466 z"
   style="fill:#809cc9;stroke-width:5.46564"
   id="path65" />
					<path
   d="m 253.88565,39.003377 8.84395,26.228012 8.87676,-26.413833 c 0.4646,-1.388188 0.8035,-2.355547 1.03853,-2.891147 0.22957,-0.541066 0.60673,-1.027478 1.14239,-1.470168 0.53567,-0.44269 1.26264,-0.650372 2.18639,-0.650372 0.67232,0 1.30091,0.163959 1.8803,0.502809 0.57393,0.338848 1.02761,0.792469 1.35556,1.34993 0.33343,0.562928 0.49741,1.125854 0.49741,1.699711 0,0.388037 -0.0547,0.814331 -0.15851,1.262486 -0.10932,0.459087 -0.24051,0.901776 -0.39902,1.339001 -0.15851,0.43176 -0.32249,0.88538 -0.48101,1.344465 l -9.45614,25.583107 c -0.33889,0.97829 -0.67779,1.912857 -1.01668,2.792771 -0.33889,0.879916 -0.72697,1.655989 -1.17518,2.322756 -0.44275,0.666768 -1.03307,1.218764 -1.77098,1.645058 -0.73791,0.420828 -1.63979,0.639441 -2.70019,0.639441 -1.06587,0 -1.96776,-0.213147 -2.70566,-0.628511 -0.74338,-0.415362 -1.3337,-0.972824 -1.78738,-1.655988 -0.45368,-0.683163 -0.84723,-1.464702 -1.18612,-2.339151 -0.33889,-0.868985 -0.67231,-1.798086 -1.01667,-2.776376 l -9.29763,-25.36996 c -0.15852,-0.459085 -0.32796,-0.912706 -0.49741,-1.360861 -0.16398,-0.44269 -0.31156,-0.923637 -0.42088,-1.442842 -0.11478,-0.513738 -0.17491,-0.950963 -0.17491,-1.306208 0,-0.907241 0.36076,-1.732503 1.0932,-2.481249 0.72697,-0.748748 1.64526,-1.120389 2.74392,-1.120389 1.3501,0 2.30664,0.409899 2.86417,1.240625 0.55753,0.830727 1.13693,2.142401 1.72179,3.956883 z"
   style="fill:#999999;stroke-width:5.46564"
   id="path67" />
					<path
   d="m 316.483,40.555524 h -17.85736 v 9.651734 h 16.44167 c 1.20799,0 2.11534,0.2678 2.71113,0.808866 0.59033,0.54653 0.89095,1.25702 0.89095,2.147866 0,0.890845 -0.29516,1.617731 -0.88002,2.175192 -0.58486,0.557461 -1.49221,0.841657 -2.72206,0.841657 h -16.44167 v 11.187486 h 18.46955 c 1.24625,0 2.18093,0.284195 2.82045,0.852587 0.62859,0.573857 0.94561,1.333536 0.94561,2.284499 0,0.918172 -0.31702,1.666919 -0.94561,2.235311 -0.63406,0.568392 -1.5742,0.858053 -2.82045,0.858053 h -21.54143 c -1.72725,0 -2.97349,-0.382571 -3.73326,-1.153179 -0.75977,-0.765144 -1.13693,-1.994838 -1.13693,-3.705479 V 39.336761 c 0,-1.136784 0.16945,-2.065887 0.50834,-2.787307 0.33889,-0.72142 0.86909,-1.24609 1.5906,-1.574009 0.72151,-0.327919 1.64526,-0.491878 2.77125,-0.491878 H 316.483 c 1.26264,0 2.20279,0.278731 2.81498,0.830728 0.61766,0.557461 0.92375,1.278881 0.92375,2.180657 0,0.918172 -0.30609,1.655988 -0.92375,2.207985 -0.61219,0.573857 -1.55234,0.852587 -2.81498,0.852587 z"
   style="fill:#999999;stroke-width:5.46564"
   id="path69" />
					<path
   d="m 342.44412,56.864003 h -2.77125 v 12.586604 c 0,1.655988 -0.36075,2.869286 -1.09866,3.656291 -0.72698,0.787004 -1.68352,1.180506 -2.85871,1.180506 -1.26264,0 -2.24105,-0.409898 -2.9407,-1.229695 -0.69418,-0.819795 -1.03853,-2.022163 -1.03853,-3.607102 V 39.347691 c 0,-1.705176 0.38262,-2.9458 1.14785,-3.716408 0.76524,-0.765144 2.00055,-1.14225 3.7114,-1.14225 h 12.88332 c 1.77644,0 3.30145,0.07651 4.56409,0.224078 1.25718,0.147562 2.39957,0.45362 3.41624,0.907241 1.22438,0.519203 2.31211,1.25702 3.25226,2.218914 0.94562,0.961895 1.66166,2.076817 2.14813,3.344769 0.49194,1.273417 0.73791,2.617882 0.73791,4.044328 0,2.918473 -0.8199,5.246695 -2.46516,6.990128 -1.64526,1.743434 -4.14321,2.984058 -7.48293,3.710944 1.40476,0.748747 2.74393,1.852739 4.02297,3.306512 1.27903,1.464702 2.42142,3.016849 3.43263,4.667373 1.00574,1.645057 1.78738,3.13162 2.34491,4.454225 0.56846,1.328069 0.84176,2.240776 0.84176,2.738119 0,0.519205 -0.16398,1.027478 -0.49194,1.535752 -0.33343,0.508274 -0.78164,0.907241 -1.3501,1.202368 -0.56846,0.295126 -1.22438,0.442689 -1.96775,0.442689 -0.89096,0 -1.63979,-0.213147 -2.24105,-0.62851 -0.60673,-0.415363 -1.12599,-0.950964 -1.55781,-1.590405 -0.43728,-0.63944 -1.0276,-1.584939 -1.77097,-2.836494 l -3.17574,-5.290419 c -1.13692,-1.940183 -2.15906,-3.415816 -3.05548,-4.437829 -0.89642,-1.016548 -1.80924,-1.705176 -2.73299,-2.082282 -0.92375,-0.377107 -2.09894,-0.546531 -3.5037,-0.546531 z m 4.53677,-16.483368 h -7.30255 v 10.84317 h 7.08937 c 1.90217,0 3.5037,-0.169424 4.79913,-0.502809 1.29544,-0.333383 2.29025,-0.896309 2.9735,-1.694244 0.68325,-0.797935 1.0276,-1.901927 1.0276,-3.301046 0,-1.093062 -0.27876,-2.060421 -0.82536,-2.891148 -0.5466,-0.830727 -1.31184,-1.459237 -2.29025,-1.874601 -0.92921,-0.382571 -2.74938,-0.579322 -5.47144,-0.579322 z"
   style="fill:#999999;stroke-width:5.46564"
   id="path71" />
					<path
   d="m 406.0942,61.87569 c 0,2.366478 -0.60672,4.492483 -1.82564,6.378014 -1.21891,1.885532 -3.00082,3.361165 -5.34573,4.432365 -2.35037,1.065734 -5.12709,1.601335 -8.34655,1.601335 -3.85351,0 -7.03472,-0.732352 -9.53813,-2.186123 -1.78191,-1.043873 -3.2304,-2.448458 -4.33999,-4.202822 -1.11506,-1.754364 -1.67259,-3.45954 -1.67259,-5.115528 0,-0.961894 0.33889,-1.78169 1.00027,-2.470319 0.67232,-0.683163 1.51954,-1.027478 2.55261,-1.027478 0.8363,0 1.54688,0.2678 2.12627,0.797935 0.57939,0.530135 1.07133,1.32807 1.48128,2.382874 0.49741,1.246091 1.03307,2.284499 1.61247,3.120691 0.57939,0.836192 1.39929,1.524821 2.44329,2.071352 1.05493,0.54653 2.43236,0.814331 4.14321,0.814331 2.35584,0 4.258,-0.551997 5.73382,-1.645058 1.47034,-1.093062 2.20279,-2.464854 2.20279,-4.098981 0,-1.300743 -0.39355,-2.361013 -1.19159,-3.169879 -0.79257,-0.803399 -1.8147,-1.426445 -3.07188,-1.852739 -1.25171,-0.426294 -2.92976,-0.879914 -5.03417,-1.360861 -2.81498,-0.661303 -5.16535,-1.431911 -7.06204,-2.317291 -1.90217,-0.874449 -3.40531,-2.082282 -4.5149,-3.601638 -1.11506,-1.519355 -1.67259,-3.415817 -1.67259,-5.672989 0,-2.158797 0.58486,-4.071654 1.76004,-5.744038 1.17519,-1.677851 2.86964,-2.962198 5.0943,-3.863974 2.22465,-0.89631 4.84285,-1.344465 7.84368,-1.344465 2.39956,0 4.47664,0.300592 6.23122,0.890845 1.74911,0.595719 3.20853,1.393654 4.36185,2.377409 1.15879,0.994686 2.00055,2.02763 2.53621,3.115226 0.53567,1.082131 0.79804,2.147865 0.79804,3.175344 0,0.945497 -0.33343,1.792621 -1.00028,2.552298 -0.66138,0.759678 -1.48674,1.136784 -2.48155,1.136784 -0.90189,0 -1.58514,-0.229543 -2.05521,-0.683164 -0.47008,-0.45362 -0.98388,-1.196902 -1.52501,-2.229845 -0.71604,-1.481098 -1.56874,-2.628813 -2.56901,-3.45954 -1.00028,-0.830727 -2.60181,-1.240625 -4.81006,-1.240625 -2.04975,0 -3.70047,0.448156 -4.95218,1.344466 -1.25718,0.901776 -1.88577,1.983907 -1.88577,3.246393 0,0.787004 0.21318,1.464702 0.63952,2.033094 0.42635,0.568393 1.01668,1.054805 1.76552,1.470168 0.74883,0.409899 1.50314,0.732351 2.26838,0.961894 0.76523,0.235009 2.02788,0.568392 3.79339,1.016548 2.19732,0.519203 4.1924,1.087596 5.97431,1.71064 1.78191,0.623046 3.30146,1.377259 4.55317,2.268104 1.25171,0.890845 2.21918,2.016698 2.9243,3.37756 0.70511,1.366327 1.05493,3.038711 1.05493,5.011687 z"
   style="fill:#999999;stroke-width:5.46564"
   id="path73" />
					<path
   d="M 417.13873,69.450607 V 38.609875 c 0,-1.601335 0.36076,-2.803703 1.0932,-3.601638 0.73244,-0.797935 1.67805,-1.202368 2.84231,-1.202368 1.19158,0 2.15906,0.393502 2.89697,1.185972 0.74337,0.797935 1.10959,1.994838 1.10959,3.618034 v 30.840732 c 0,1.623196 -0.36622,2.831029 -1.10959,3.628964 -0.74338,0.797935 -1.70539,1.207833 -2.89697,1.207833 -1.14239,0 -2.08801,-0.404433 -2.82591,-1.218764 -0.74338,-0.814331 -1.1096,-2.016698 -1.1096,-3.618033 z"
   style="fill:#999999;stroke-width:5.46564"
   id="path75" />
					<path
   d="m 455.20049,33.805869 c 4.05029,0 7.52666,0.819797 10.42909,2.464854 2.90244,1.650523 5.10523,3.989675 6.59744,7.02292 1.48675,3.038712 2.23559,6.596627 2.23559,10.695608 0,3.022315 -0.40995,5.77683 -1.22985,8.252614 -0.81443,2.470319 -2.03881,4.618186 -3.67314,6.432668 -1.63979,1.814482 -3.6458,3.208135 -6.02897,4.17003 -2.38317,0.956429 -5.11069,1.442841 -8.17711,1.442841 -3.06095,0 -5.79394,-0.497343 -8.20444,-1.481098 -2.41596,-0.989221 -4.43837,-2.382875 -6.05084,-4.180961 -1.61246,-1.798086 -2.83684,-3.962348 -3.6622,-6.487321 -0.82537,-2.530437 -1.24078,-5.263091 -1.24078,-8.197961 0,-3.011385 0.42635,-5.771365 1.28997,-8.279942 0.86363,-2.514041 2.10987,-4.650976 3.74966,-6.410805 1.63433,-1.759829 3.61848,-3.109761 5.96885,-4.044328 2.35038,-0.934568 5.01231,-1.399119 7.99673,-1.399119 z m 11.23259,20.134194 c 0,-2.880217 -0.45914,-5.377863 -1.38836,-7.487471 -0.91828,-2.109609 -2.23558,-3.710944 -3.9519,-4.78761 -1.71085,-1.082131 -3.68407,-1.623197 -5.89779,-1.623197 -1.57967,0 -3.03909,0.300592 -4.38372,0.896311 -1.3337,0.595718 -2.49249,1.475633 -3.45996,2.617883 -0.96748,1.142249 -1.72725,2.606951 -2.29025,4.388641 -0.563,1.781691 -0.8363,3.776528 -0.8363,6.000908 0,2.229847 0.27877,4.25201 0.8363,6.061027 0.563,1.803552 1.3501,3.301046 2.37223,4.492483 1.02214,1.185972 2.19186,2.076817 3.51463,2.66707 1.32277,0.584788 2.77672,0.88538 4.35639,0.88538 2.02241,0 3.88084,-0.513739 5.58076,-1.530287 1.69992,-1.016546 3.04455,-2.596021 4.04483,-4.722025 1.00574,-2.126005 1.50314,-4.754818 1.50314,-7.859113 z"
   style="fill:#999999;stroke-width:5.46564"
   id="path77" />
					<path
   d="m 495.11966,38.555222 15.29381,23.090925 V 38.342075 c 0,-1.508426 0.32249,-2.645209 0.97295,-3.404887 0.64498,-0.759678 1.51407,-1.131319 2.6182,-1.131319 1.13693,0 2.02788,0.371641 2.68926,1.131319 0.65046,0.759678 0.98388,1.890996 0.98388,3.404887 v 30.786078 c 0,3.437679 -1.42115,5.153786 -4.26346,5.153786 -0.71058,0 -1.3501,-0.109307 -1.91856,-0.311523 -0.56847,-0.207682 -1.10413,-0.530134 -1.60154,-0.97829 -0.4974,-0.442689 -0.96201,-0.967359 -1.38836,-1.563078 -0.42634,-0.595718 -0.84722,-1.207833 -1.27357,-1.830878 L 492.31561,46.78051 v 22.948827 c 0,1.497495 -0.34436,2.628813 -1.03854,3.393957 -0.69964,0.770608 -1.58513,1.153179 -2.67286,1.153179 -1.12053,0 -2.02241,-0.388036 -2.70019,-1.16411 -0.67779,-0.776074 -1.01668,-1.901927 -1.01668,-3.37756 V 39.538977 c 0,-1.278882 0.13665,-2.284499 0.42635,-3.016849 0.33889,-0.797935 0.89642,-1.459238 1.68899,-1.962047 0.78163,-0.508273 1.62886,-0.759677 2.54168,-0.759677 0.71058,0 1.32277,0.114772 1.8311,0.344315 0.50834,0.229542 0.95108,0.541065 1.3337,0.934567 0.38262,0.393502 0.77617,0.89631 1.18065,1.519356 0.38809,0.633975 0.79804,1.284347 1.22985,1.95658 z"
   style="fill:#999999;stroke-width:5.46564"
   id="path79" />
					
				</g>
			</g>
	</svg>
