<?xml version="1.0" standalone="no"?>
<!DOCTYPE svg PUBLIC "-//W3C//DTD SVG 20010904//EN"
 "http://www.w3.org/TR/2001/REC-SVG-20010904/DTD/svg10.dtd">
<svg version="1.0" xmlns="http://www.w3.org/2000/svg"
 width="260.000000pt" height="260.000000pt" viewBox="0 0 260.000000 260.000000"
 preserveAspectRatio="xMidYMid meet">
<metadata>
Created by potrace 1.14, written by Peter Selinger 2001-2017
</metadata>
<g transform="translate(0.000000,260.000000) scale(0.100000,-0.100000)"
fill="#000000" stroke="none">
<path d="M1525 1990 c-71 -4 -133 -14 -174 -28 -35 -12 -71 -22 -80 -22 -9 -1
-59 -23 -111 -50 -52 -27 -153 -78 -225 -113 -73 -37 -153 -85 -183 -110 -76
-67 -103 -84 -142 -92 -141 -28 -360 -118 -430 -176 l-25 -20 40 6 c43 7 42 5
-18 -39 -40 -29 -51 -62 -17 -51 11 3 35 7 52 7 18 0 63 7 101 15 37 8 72 13
78 11 6 -2 -38 -27 -98 -55 -130 -60 -173 -93 -157 -119 13 -23 162 -99 232
-120 l53 -16 72 48 c40 26 122 83 183 126 104 73 115 78 163 78 45 0 51 -3 57
-24 3 -14 14 -32 24 -41 27 -24 43 -112 44 -240 1 -106 0 -110 -21 -113 -12
-2 -50 10 -85 26 -69 33 -111 33 -129 1 -6 -13 -6 -19 1 -19 5 0 10 5 10 11 0
6 12 9 28 7 19 -2 26 -8 24 -20 -2 -12 6 -19 25 -23 69 -15 119 -29 126 -35 5
-4 1 -31 -7 -61 -20 -67 -20 -100 0 -125 15 -18 15 -18 11 4 -4 17 -1 22 11
20 12 -2 18 9 24 42 16 86 18 90 38 90 31 0 101 -41 142 -83 20 -21 42 -36 48
-32 15 9 40 -13 40 -36 0 -11 5 -19 10 -19 6 0 10 13 10 29 0 27 -24 54 -115
127 -20 15 -19 15 5 10 76 -19 80 -19 80 -2 0 19 21 21 38 4 6 -6 14 -9 18 -6
15 16 -51 41 -118 45 -131 7 -152 35 -164 213 -12 185 -15 171 31 187 53 19
109 18 165 -1 25 -9 64 -16 87 -16 l41 0 -5 -38 c-6 -44 17 -77 49 -69 15 4
35 -18 94 -100 114 -162 114 -183 -4 -183 -69 0 -81 -3 -100 -23 -28 -30 -28
-42 0 -23 29 20 48 20 48 0 0 -13 6 -15 28 -9 76 19 186 27 222 16 21 -6 53
-11 71 -11 19 0 47 -7 63 -15 36 -19 50 -19 67 1 10 12 23 14 54 10 l40 -6
-24 20 c-14 13 -39 20 -65 21 -22 0 -50 4 -61 9 -17 8 -16 9 10 11 17 1 47 1
68 0 28 -2 37 1 37 13 0 11 9 16 32 16 24 0 29 3 21 11 -13 13 -46 15 -107 9
-28 -4 -41 -1 -44 9 -3 10 2 13 22 9 30 -6 35 8 6 17 -12 4 -47 -4 -84 -19
-97 -39 -116 -36 -169 27 -24 28 -70 88 -101 132 -49 69 -56 85 -54 120 3 35
7 42 41 59 22 10 53 22 70 27 18 4 52 15 77 24 25 10 77 24 115 32 171 36 282
93 345 176 36 49 66 60 77 30 3 -10 18 -34 33 -53 33 -45 57 -103 64 -160 8
-58 39 -180 46 -180 12 0 49 71 65 126 9 32 21 67 26 76 5 10 9 32 9 50 0 17
9 51 20 74 16 32 21 63 22 136 1 110 -15 150 -89 229 -70 75 -124 96 -283 112
-117 12 -143 18 -195 46 -57 30 -167 53 -235 49 -14 -1 -74 -4 -135 -8z"/>
</g>
</svg>
